Rusch-R-Bizarre-ProtoRoman103R.ufo
<glyph name="ampersand" format="1">
  <advance width="789"/>
  <unicode hex="0026"/>
  <outline>
    <contour>
      <point x="271" y="361" type="curve"/>
      <point x="245" y="388" type="line"/>
      <point x="129" y="331" type="line"/>
      <point x="74" y="294"/>
      <point x="31" y="235"/>
      <point x="30" y="165" type="curve"/>
      <point x="29" y="49"/>
      <point x="111" y="-9"/>
      <point x="216" y="-9" type="curve"/>
      <point x="374" y="-9"/>
      <point x="577" y="275"/>
      <point x="659" y="375" type="curve"/>
      <point x="727" y="458"/>
      <point x="718" y="462"/>
      <point x="769" y="492" type="curve"/>
      <point x="766" y="513" type="line"/>
      <point x="713" y="509"/>
      <point x="701" y="509"/>
      <point x="648" y="513" type="curve"/>
      <point x="646" y="491" type="line"/>
      <point x="672" y="474"/>
      <point x="668" y="443"/>
      <point x="630" y="393" type="curve"/>
      <point x="529" y="260"/>
      <point x="368" y="69"/>
      <point x="270" y="69" type="curve"/>
      <point x="166" y="69"/>
      <point x="107" y="120"/>
      <point x="108" y="192" type="curve"/>
      <point x="109" y="266"/>
      <point x="160" y="327"/>
    </contour>
    <contour>
      <point x="259" y="398" type="curve"/>
      <point x="289" y="380" type="line"/>
      <point x="371" y="411"/>
      <point x="414" y="487"/>
      <point x="414" y="536" type="curve"/>
      <point x="414" y="601"/>
      <point x="355" y="637"/>
      <point x="316" y="647" type="curve"/>
      <point x="285" y="647"/>
      <point x="247" y="644"/>
      <point x="204" y="626" type="curve"/>
      <point x="156" y="606"/>
      <point x="122" y="569"/>
      <point x="122" y="511" type="curve"/>
      <point x="122" y="457"/>
      <point x="150" y="410"/>
      <point x="205" y="372" type="curve"/>
      <point x="429" y="308"/>
      <point x="502" y="129"/>
      <point x="579" y="26" type="curve"/>
      <point x="606" y="-11"/>
      <point x="667" y="-26"/>
      <point x="714" y="-16" type="curve"/>
      <point x="722" y="22"/>
      <point x="728" y="63"/>
      <point x="747" y="101" type="curve"/>
      <point x="729" y="111" type="line"/>
      <point x="708" y="91"/>
      <point x="704" y="88"/>
      <point x="690" y="81" type="curve"/>
      <point x="668" y="84"/>
      <point x="638" y="99"/>
      <point x="611" y="132" type="curve"/>
      <point x="538" y="221"/>
      <point x="462" y="361"/>
      <point x="321" y="413" type="curve"/>
      <point x="247" y="430"/>
      <point x="180" y="469"/>
      <point x="180" y="526" type="curve"/>
      <point x="180" y="566"/>
      <point x="201" y="593"/>
      <point x="237" y="604" type="curve"/>
      <point x="282" y="611"/>
      <point x="353" y="583"/>
      <point x="353" y="509" type="curve"/>
      <point x="353" y="460"/>
      <point x="325" y="420"/>
    </contour>
  </outline>
</glyph>
<glyph name="parenleft" format="1">
  <advance width="600"/>
  <unicode hex="0028"/>
  <outline>
    <contour>
      <point x="564" y="685" type="curve"/>
      <point x="564" y="723" type="line"/>
      <point x="357" y="724"/>
      <point x="47" y="643"/>
      <point x="47" y="312" type="curve"/>
      <point x="47" y="-20"/>
      <point x="346" y="-63"/>
      <point x="577" y="-80" type="curve"/>
      <point x="577" y="-50" type="line"/>
      <point x="247" y="-35"/>
      <point x="90" y="87"/>
      <point x="90" y="313" type="curve"/>
      <point x="90" y="557"/>
      <point x="278" y="685"/>
    </contour>
  </outline>
</glyph>
<glyph name="hyphen" format="1">
  <advance width="349"/>
  <unicode hex="002D"/>
  <outline>
    <contour>
      <point x="276" y="353" type="line"/>
      <point x="18" y="82" type="line"/>
      <point x="33" y="55" type="line"/>
      <point x="329" y="318" type="line"/>
    </contour>
  </outline>
</glyph>
<glyph name="period" format="1">
  <advance width="167"/>
  <unicode hex="002E"/>
  <outline>
    <contour>
      <point x="89" y="105" type="curve"/>
      <point x="68" y="93"/>
      <point x="42" y="71"/>
      <point x="25" y="50" type="curve"/>
      <point x="41" y="29"/>
      <point x="66" y="2"/>
      <point x="80" y="-16" type="curve"/>
      <point x="103" y="1"/>
      <point x="125" y="23"/>
      <point x="143" y="40" type="curve"/>
      <point x="128" y="63"/>
      <point x="111" y="88"/>
    </contour>
  </outline>
</glyph>
<glyph name="question" format="1">
  <advance width="418"/>
  <unicode hex="003F"/>
  <outline>
    <contour>
      <point x="286" y="632" type="curve"/>
      <point x="208" y="572" type="line"/>
      <point x="208" y="552" type="line"/>
      <point x="262" y="546"/>
      <point x="317" y="531"/>
      <point x="371" y="505" type="curve"/>
      <point x="380" y="464"/>
      <point x="345" y="424"/>
      <point x="269" y="424" type="curve"/>
      <point x="105" y="424" type="line"/>
      <point x="49" y="387"/>
      <point x="10" y="340"/>
      <point x="10" y="289" type="curve"/>
      <point x="10" y="245"/>
      <point x="33" y="190"/>
      <point x="96" y="147" type="curve"/>
      <point x="163" y="189" type="line"/>
      <point x="163" y="200" type="line"/>
      <point x="107" y="235"/>
      <point x="59" y="297"/>
      <point x="75" y="355" type="curve"/>
      <point x="163" y="372"/>
      <point x="248" y="364"/>
      <point x="317" y="355" type="curve"/>
      <point x="368" y="372"/>
      <point x="408" y="417"/>
      <point x="408" y="490" type="curve"/>
      <point x="408" y="569"/>
      <point x="370" y="600"/>
    </contour>
    <component base="period" xOffset="11"/>
  </outline>
</glyph>
<glyph name="A" format="1">
  <advance width="677"/>
  <unicode hex="0041"/>
  <outline>
    <contour>
      <point x="499" y="290" type="line"/>
      <point x="494" y="329" type="line"/>
      <point x="163" y="329" type="line"/>
      <point x="163" y="290" type="line"/>
    </contour>
    <contour>
      <point x="98" y="74" type="curve"/>
      <point x="98" y="111"/>
      <point x="238" y="388"/>
      <point x="337" y="626" type="curve"/>
      <point x="311" y="620" type="line"/>
      <point x="424" y="342"/>
      <point x="535" y="126"/>
      <point x="535" y="76" type="curve"/>
      <point x="535" y="48"/>
      <point x="515" y="39"/>
      <point x="445" y="25" type="curve"/>
      <point x="445" y="0" type="line"/>
      <point x="445" y="0"/>
      <point x="672" y="1"/>
      <point x="672" y="0" type="curve"/>
      <point x="672" y="25" type="line"/>
      <point x="638" y="60"/>
      <point x="408" y="628"/>
      <point x="372" y="700" type="curve"/>
      <point x="322" y="700" type="line"/>
      <point x="6" y="25" type="line"/>
      <point x="5" y="0" type="line"/>
      <point x="5" y="0"/>
      <point x="197" y="0"/>
      <point x="197" y="0" type="curve"/>
      <point x="197" y="21" type="line"/>
      <point x="109" y="50"/>
      <point x="98" y="52"/>
    </contour>
    <contour>
      <point x="339" y="0" type="move" name="bottom"/>
    </contour>
    <contour>
      <point x="609" y="10" type="move" name="ogonek"/>
    </contour>
    <contour>
      <point x="339" y="700" type="move" name="top"/>
    </contour>
  </outline>
</glyph>
<glyph name="B" format="1">
  <advance width="676"/>
  <unicode hex="0042"/>
  <outline>
    <contour>
      <point x="65" y="-3" type="curve"/>
      <point x="65" y="20" type="line"/>
      <point x="137" y="39"/>
      <point x="147" y="62"/>
      <point x="147" y="105" type="curve"/>
      <point x="147" y="196"/>
      <point x="150" y="490"/>
      <point x="147" y="584" type="curve"/>
      <point x="144" y="665"/>
      <point x="118" y="656"/>
      <point x="40" y="685" type="curve"/>
      <point x="43" y="710" type="line"/>
      <point x="172" y="698"/>
      <point x="215" y="711"/>
      <point x="348" y="711" type="curve"/>
      <point x="528" y="711"/>
      <point x="590" y="643"/>
      <point x="590" y="560" type="curve"/>
      <point x="590" y="482"/>
      <point x="515" y="422"/>
      <point x="451" y="375" type="curve"/>
      <point x="544" y="357"/>
      <point x="626" y="283"/>
      <point x="626" y="191" type="curve"/>
      <point x="626" y="39"/>
      <point x="485" y="-6"/>
      <point x="352" y="-6" type="curve"/>
      <point x="259" y="-6"/>
      <point x="154" y="3"/>
    </contour>
    <contour>
      <point x="232" y="661" type="curve"/>
      <point x="232" y="36" type="line"/>
      <point x="275" y="31"/>
      <point x="311" y="29"/>
      <point x="354" y="29" type="curve"/>
      <point x="458" y="29"/>
      <point x="538" y="79"/>
      <point x="538" y="178" type="curve"/>
      <point x="538" y="288"/>
      <point x="458" y="350"/>
      <point x="316" y="346" type="curve"/>
      <point x="282" y="345"/>
      <point x="258" y="345"/>
      <point x="224" y="335" type="curve"/>
      <point x="222" y="387" type="line"/>
      <point x="252" y="384"/>
      <point x="282" y="381"/>
      <point x="322" y="381" type="curve"/>
      <point x="429" y="381"/>
      <point x="500" y="441"/>
      <point x="500" y="530" type="curve"/>
      <point x="500" y="626"/>
      <point x="425" y="674"/>
      <point x="326" y="674" type="curve"/>
      <point x="296" y="674"/>
      <point x="263" y="669"/>
    </contour>
    <contour>
      <point x="333" y="0" type="move" name="bottom"/>
    </contour>
    <contour>
      <point x="333" y="700" type="move" name="top"/>
    </contour>
  </outline>
</glyph>
<glyph name="D" format="1">
  <advance width="840"/>
  <unicode hex="0044"/>
  <outline>
    <contour>
      <point x="146" y="593" type="curve"/>
      <point x="154" y="440"/>
      <point x="149" y="223"/>
      <point x="144" y="35" type="curve"/>
      <point x="144" y="35"/>
      <point x="57" y="29"/>
      <point x="57" y="29" type="curve"/>
      <point x="57" y="-6" type="line"/>
      <point x="57" y="-6"/>
      <point x="113" y="0"/>
      <point x="252" y="-5" type="curve"/>
      <point x="603" y="-18"/>
      <point x="800" y="86"/>
      <point x="800" y="356" type="curve"/>
      <point x="800" y="597"/>
      <point x="599" y="700"/>
      <point x="304" y="700" type="curve"/>
      <point x="191" y="700"/>
      <point x="133" y="700"/>
      <point x="50" y="718" type="curve"/>
      <point x="40" y="689" type="line"/>
      <point x="113" y="668"/>
      <point x="143" y="646"/>
    </contour>
    <contour>
      <point x="709" y="342" type="curve"/>
      <point x="709" y="109"/>
      <point x="504" y="11"/>
      <point x="238" y="36" type="curve"/>
      <point x="232" y="199"/>
      <point x="228" y="439"/>
      <point x="242" y="651" type="curve"/>
      <point x="283" y="658"/>
      <point x="303" y="661"/>
      <point x="343" y="661" type="curve"/>
      <point x="532" y="661"/>
      <point x="709" y="573"/>
    </contour>
    <contour>
      <point x="425" y="0" type="move" name="bottom"/>
    </contour>
    <contour>
      <point x="425" y="350" type="move" name="center"/>
    </contour>
    <contour>
      <point x="425" y="700" type="move" name="top"/>
    </contour>
  </outline>
</glyph>
<glyph name="E" format="1">
  <advance width="689"/>
  <unicode hex="0045"/>
  <outline>
    <contour>
      <point x="466" y="375" type="curve"/>
      <point x="211" y="375" type="line"/>
      <point x="212" y="333" type="line"/>
      <point x="470" y="333" type="line" smooth="yes"/>
      <point x="534" y="333"/>
      <point x="573" y="327"/>
      <point x="587" y="250" type="curve"/>
      <point x="612" y="254" type="line"/>
      <point x="603" y="345"/>
      <point x="605" y="369"/>
      <point x="613" y="461" type="curve"/>
      <point x="588" y="464" type="line"/>
      <point x="577" y="390"/>
      <point x="541" y="375"/>
    </contour>
    <contour>
      <point x="476" y="40" type="curve"/>
      <point x="223" y="40" type="line"/>
      <point x="223" y="656" type="line"/>
      <point x="489" y="656" type="line" smooth="yes"/>
      <point x="572" y="656"/>
      <point x="587" y="631"/>
      <point x="605" y="577" type="curve"/>
      <point x="629" y="578" type="line"/>
      <point x="629" y="700" type="line"/>
      <point x="40" y="700" type="line"/>
      <point x="40" y="670" type="line"/>
      <point x="100" y="661"/>
      <point x="133" y="654"/>
      <point x="133" y="593" type="curve"/>
      <point x="137" y="121" type="line" smooth="yes"/>
      <point x="138" y="53"/>
      <point x="115" y="32"/>
      <point x="43" y="30" type="curve"/>
      <point x="43" y="0" type="line"/>
      <point x="659" y="0" type="line"/>
      <point x="659" y="139" type="line"/>
      <point x="635" y="139" type="line"/>
      <point x="631" y="75"/>
      <point x="583" y="40"/>
    </contour>
    <contour>
      <point x="345" y="0" type="move" name="bottom"/>
    </contour>
    <contour>
      <point x="604" y="10" type="move" name="ogonek"/>
    </contour>
    <contour>
      <point x="345" y="700" type="move" name="top"/>
    </contour>
    <contour>
      <point x="40" y="700" type="move" name="topleft"/>
    </contour>
  </outline>
</glyph>
<glyph name="J" format="1">
  <advance width="392"/>
  <unicode hex="004A"/>
  <outline>
    <contour>
      <point x="-80" y="-132" type="curve"/>
      <point x="-50" y="-153"/>
      <point x="3" y="-162"/>
      <point x="20" y="-162" type="curve"/>
      <point x="208" y="-162"/>
      <point x="291" y="61"/>
      <point x="291" y="189" type="curve"/>
      <point x="291" y="610" type="line" smooth="yes"/>
      <point x="291" y="645"/>
      <point x="307" y="663"/>
      <point x="352" y="673" type="curve"/>
      <point x="352" y="701" type="line"/>
      <point x="125" y="701" type="line"/>
      <point x="125" y="669" type="line"/>
      <point x="184" y="660"/>
      <point x="189" y="647"/>
      <point x="189" y="591" type="curve"/>
      <point x="191" y="71" type="line" smooth="yes"/>
      <point x="191" y="-31"/>
      <point x="154" y="-94"/>
      <point x="93" y="-94" type="curve"/>
      <point x="29" y="-94"/>
      <point x="-14" y="-63"/>
      <point x="-39" y="-44" type="curve"/>
      <point x="-54" y="-54"/>
      <point x="-80" y="-103"/>
    </contour>
  </outline>
</glyph>
<glyph name="K" format="1">
  <advance width="685"/>
  <unicode hex="004B"/>
  <outline>
    <contour>
      <point x="44" y="30" type="curve"/>
      <point x="44" y="0" type="line"/>
      <point x="275" y="0" type="line"/>
      <point x="275" y="30" type="line"/>
      <point x="229" y="41"/>
      <point x="211" y="54"/>
      <point x="209" y="80" type="curve"/>
      <point x="201" y="182"/>
      <point x="207" y="523"/>
      <point x="213" y="631" type="curve"/>
      <point x="214" y="650"/>
      <point x="238" y="661"/>
      <point x="277" y="670" type="curve"/>
      <point x="277" y="700" type="line"/>
      <point x="40" y="700" type="line"/>
      <point x="40" y="670" type="line"/>
      <point x="101" y="655"/>
      <point x="114" y="644"/>
      <point x="116" y="613" type="curve"/>
      <point x="122" y="514"/>
      <point x="119" y="181"/>
      <point x="114" y="85" type="curve"/>
      <point x="112" y="50"/>
      <point x="93" y="42"/>
    </contour>
    <contour>
      <point x="409" y="30" type="curve"/>
      <point x="409" y="0" type="line"/>
      <point x="661" y="0" type="line"/>
      <point x="661" y="30" type="line"/>
      <point x="615" y="51"/>
      <point x="594" y="71"/>
      <point x="575" y="90" type="curve"/>
      <point x="270" y="395" type="line"/>
      <point x="193" y="347" type="line"/>
      <point x="447" y="95" type="line" smooth="yes"/>
      <point x="482" y="60"/>
      <point x="458" y="42"/>
    </contour>
    <contour>
      <point x="645" y="700" type="line"/>
      <point x="414" y="700" type="line"/>
      <point x="414" y="670" type="line"/>
      <point x="489" y="656"/>
      <point x="489" y="629"/>
      <point x="439" y="582" type="curve"/>
      <point x="188" y="348" type="line"/>
      <point x="215" y="320" type="line"/>
      <point x="559" y="620" type="line" smooth="yes"/>
      <point x="586" y="644"/>
      <point x="599" y="659"/>
      <point x="645" y="670" type="curve"/>
    </contour>
  </outline>
</glyph>
<glyph name="M" format="1">
  <advance width="1052"/>
  <unicode hex="004D"/>
  <outline>
    <contour>
      <point x="40" y="30" type="curve"/>
      <point x="40" y="0" type="line"/>
      <point x="312" y="0" type="line"/>
      <point x="312" y="30" type="line"/>
      <point x="189" y="39"/>
      <point x="195" y="50"/>
      <point x="193" y="95" type="curve"/>
      <point x="190" y="171"/>
      <point x="188" y="505"/>
      <point x="193" y="631" type="curve"/>
      <point x="218" y="631" type="line"/>
      <point x="304" y="487"/>
      <point x="463" y="178"/>
      <point x="499" y="39" type="curve"/>
      <point x="540" y="39" type="line"/>
      <point x="578" y="172"/>
      <point x="735" y="483"/>
      <point x="825" y="631" type="curve"/>
      <point x="850" y="631" type="line"/>
      <point x="853" y="487"/>
      <point x="850" y="155"/>
      <point x="846" y="85" type="curve"/>
      <point x="844" y="50"/>
      <point x="825" y="42"/>
      <point x="728" y="30" type="curve"/>
      <point x="728" y="0" type="line"/>
      <point x="1012" y="0" type="line"/>
      <point x="1012" y="30" type="line"/>
      <point x="966" y="41"/>
      <point x="948" y="54"/>
      <point x="946" y="80" type="curve"/>
      <point x="938" y="182"/>
      <point x="938" y="523"/>
      <point x="943" y="611" type="curve"/>
      <point x="945" y="650"/>
      <point x="956" y="655"/>
      <point x="998" y="670" type="curve"/>
      <point x="998" y="700" type="line"/>
      <point x="997" y="700" type="line"/>
      <point x="997" y="701" type="line"/>
      <point x="659" y="701" type="line"/>
      <point x="659" y="671" type="line"/>
      <point x="758" y="650"/>
      <point x="765" y="628"/>
      <point x="746" y="589" type="curve"/>
      <point x="535" y="163" type="line"/>
      <point x="563" y="151" type="line"/>
      <point x="342" y="602" type="line" smooth="yes"/>
      <point x="333" y="621"/>
      <point x="323" y="659"/>
      <point x="420" y="670" type="curve"/>
      <point x="420" y="700" type="line"/>
      <point x="55" y="701" type="line"/>
      <point x="55" y="671" type="line"/>
      <point x="92" y="663"/>
      <point x="138" y="660"/>
      <point x="140" y="631" type="curve"/>
      <point x="147" y="523"/>
      <point x="142" y="182"/>
      <point x="137" y="90" type="curve"/>
      <point x="135" y="54"/>
      <point x="123" y="45"/>
    </contour>
    <contour>
      <point x="532" y="0" type="move" name="bottom"/>
    </contour>
    <contour>
      <point x="532" y="700" type="move" name="top"/>
    </contour>
  </outline>
</glyph>
<glyph name="O" format="1">
  <advance width="789"/>
  <unicode hex="004F"/>
  <outline>
    <contour>
      <point x="396" y="-12" type="curve"/>
      <point x="613" y="-12"/>
      <point x="749" y="155"/>
      <point x="749" y="351" type="curve"/>
      <point x="749" y="546"/>
      <point x="619" y="711"/>
      <point x="396" y="711" type="curve"/>
      <point x="178" y="711"/>
      <point x="40" y="544"/>
      <point x="40" y="351" type="curve"/>
      <point x="40" y="155"/>
      <point x="168" y="-12"/>
    </contour>
    <contour>
      <point x="418" y="29" type="curve"/>
      <point x="244" y="29"/>
      <point x="138" y="180"/>
      <point x="138" y="371" type="curve"/>
      <point x="138" y="536"/>
      <point x="215" y="673"/>
      <point x="374" y="673" type="curve"/>
      <point x="548" y="673"/>
      <point x="654" y="522"/>
      <point x="654" y="331" type="curve"/>
      <point x="654" y="166"/>
      <point x="586" y="29"/>
    </contour>
    <contour>
      <point x="426" y="0" type="move" name="bottom"/>
    </contour>
    <contour>
      <point x="426" y="350" type="move" name="center"/>
    </contour>
    <contour>
      <point x="750" y="10" type="move" name="ogonek"/>
    </contour>
    <contour>
      <point x="426" y="700" type="move" name="top"/>
    </contour>
    <contour>
      <point x="40" y="700" type="move" name="topleft"/>
    </contour>
    <contour>
      <point x="812" y="700" type="move" name="topright"/>
    </contour>
  </outline>
</glyph>
<glyph name="Q" format="1">
  <advance width="762"/>
  <unicode hex="0051"/>
  <outline>
    <contour>
      <point x="559" y="63" type="curve"/>
      <point x="434" y="9" type="line"/>
      <point x="533" y="-117"/>
      <point x="694" y="-182"/>
      <point x="852" y="-181" type="curve"/>
      <point x="946" y="-181"/>
      <point x="1084" y="-133"/>
      <point x="1142" y="-108" type="curve"/>
      <point x="1135" y="-89" type="line"/>
      <point x="1055" y="-112"/>
      <point x="971" y="-127"/>
      <point x="887" y="-127" type="curve"/>
      <point x="741" y="-127"/>
      <point x="624" y="-72"/>
    </contour>
    <component base="O"/>
    <contour>
      <point x="301" y="0" type="move" name="bottom"/>
    </contour>
    <contour>
      <point x="301" y="700" type="move" name="top"/>
    </contour>
  </outline>
</glyph>
<glyph name="R" format="1">
  <advance width="678"/>
  <unicode hex="0052"/>
  <outline>
    <contour>
      <point x="81" y="615" type="curve"/>
      <point x="86" y="648" type="line"/>
      <point x="123" y="648"/>
      <point x="171" y="647"/>
      <point x="232" y="647" type="curve"/>
      <point x="281" y="677"/>
      <point x="329" y="709"/>
      <point x="421" y="709" type="curve"/>
      <point x="509" y="709"/>
      <point x="623" y="654"/>
      <point x="623" y="527" type="curve"/>
      <point x="623" y="394"/>
      <point x="489" y="335"/>
      <point x="426" y="342" type="curve"/>
      <point x="490" y="261"/>
      <point x="551" y="170"/>
      <point x="620" y="70" type="curve"/>
      <point x="633" y="51"/>
      <point x="642" y="42"/>
      <point x="668" y="29" type="curve"/>
      <point x="668" y="0" type="line"/>
      <point x="602" y="4"/>
      <point x="537" y="4"/>
      <point x="471" y="0" type="curve"/>
      <point x="471" y="30" type="line"/>
      <point x="536" y="38"/>
      <point x="527" y="52"/>
      <point x="512" y="77" type="curve"/>
      <point x="436" y="203"/>
      <point x="347" y="312"/>
      <point x="244" y="420" type="curve"/>
      <point x="199" y="98" type="line" smooth="yes"/>
      <point x="190" y="34"/>
      <point x="209" y="37"/>
      <point x="266" y="23" type="curve"/>
      <point x="266" y="-4" type="line"/>
      <point x="187" y="3"/>
      <point x="109" y="2"/>
      <point x="30" y="-5" type="curve"/>
      <point x="30" y="24" type="line"/>
      <point x="101" y="33"/>
      <point x="106" y="51"/>
      <point x="113" y="94" type="curve"/>
      <point x="189" y="570" type="line" smooth="yes"/>
      <point x="194" y="601"/>
      <point x="191" y="602"/>
    </contour>
    <contour>
      <point x="423" y="645" type="curve"/>
      <point x="349" y="645"/>
      <point x="288" y="600"/>
      <point x="288" y="511" type="curve"/>
      <point x="288" y="444"/>
      <point x="347" y="380"/>
      <point x="415" y="380" type="curve"/>
      <point x="497" y="380"/>
      <point x="554" y="425"/>
      <point x="554" y="518" type="curve"/>
      <point x="554" y="591"/>
      <point x="497" y="645"/>
    </contour>
    <contour>
      <point x="347" y="0" type="move" name="bottom"/>
    </contour>
    <contour>
      <point x="347" y="700" type="move" name="top"/>
    </contour>
  </outline>
</glyph>
<glyph name="S" format="1">
  <advance width="592"/>
  <unicode hex="0053"/>
  <outline>
    <contour>
      <point x="525" y="512" type="curve"/>
      <point x="552" y="512" type="line"/>
      <point x="542" y="707" type="line"/>
      <point x="543" y="707"/>
      <point x="469" y="713"/>
      <point x="360" y="713" type="curve"/>
      <point x="147" y="713"/>
      <point x="49" y="653"/>
      <point x="49" y="527" type="curve"/>
      <point x="49" y="436"/>
      <point x="110" y="398"/>
      <point x="250" y="336" type="curve"/>
      <point x="349" y="292"/>
      <point x="475" y="256"/>
      <point x="475" y="159" type="curve"/>
      <point x="475" y="73"/>
      <point x="395" y="31"/>
      <point x="277" y="31" type="curve"/>
      <point x="157" y="31"/>
      <point x="73" y="89"/>
      <point x="58" y="156" type="curve"/>
      <point x="30" y="157" type="line"/>
      <point x="48" y="0" type="line"/>
      <point x="88" y="0"/>
      <point x="153" y="-9"/>
      <point x="256" y="-9" type="curve"/>
      <point x="430" y="-9"/>
      <point x="562" y="33"/>
      <point x="562" y="185" type="curve"/>
      <point x="562" y="300"/>
      <point x="461" y="349"/>
      <point x="325" y="404" type="curve"/>
      <point x="198" y="455"/>
      <point x="151" y="482"/>
      <point x="151" y="548" type="curve"/>
      <point x="151" y="629"/>
      <point x="227" y="677"/>
      <point x="320" y="677" type="curve"/>
      <point x="446" y="677"/>
      <point x="496" y="634"/>
    </contour>
    <contour>
      <point x="290" y="0" type="move" name="bottom"/>
    </contour>
    <contour>
      <point x="290" y="700" type="move" name="top"/>
    </contour>
  </outline>
</glyph>
<glyph name="T" format="1">
  <advance width="774"/>
  <unicode hex="0054"/>
  <outline>
    <contour>
      <point x="381" y="605" type="curve"/>
      <point x="144" y="605"/>
      <point x="87" y="623"/>
      <point x="58" y="491" type="curve"/>
      <point x="28" y="491" type="line"/>
      <point x="39" y="552"/>
      <point x="38" y="652"/>
      <point x="25" y="731" type="curve"/>
      <point x="55" y="731" type="line"/>
      <point x="119" y="649"/>
      <point x="89" y="663"/>
      <point x="381" y="663" type="curve"/>
      <point x="654" y="663"/>
      <point x="674" y="649"/>
      <point x="719" y="732" type="curve"/>
      <point x="749" y="732" type="line"/>
      <point x="735" y="654"/>
      <point x="735" y="553"/>
      <point x="749" y="491" type="curve"/>
      <point x="719" y="491" type="line"/>
      <point x="681" y="627"/>
      <point x="623" y="605"/>
    </contour>
    <contour>
      <point x="338" y="157" type="curve"/>
      <point x="352" y="633" type="line"/>
      <point x="429" y="633" type="line"/>
      <point x="436" y="157" type="line" smooth="yes"/>
      <point x="437" y="56"/>
      <point x="437" y="56"/>
      <point x="541" y="26" type="curve"/>
      <point x="541" y="-4" type="line"/>
      <point x="417" y="6"/>
      <point x="355" y="5"/>
      <point x="227" y="-4" type="curve"/>
      <point x="227" y="26" type="line"/>
      <point x="335" y="56"/>
      <point x="335" y="56"/>
    </contour>
    <contour>
      <point x="387" y="0" type="move" name="bottom"/>
    </contour>
    <contour>
      <point x="387" y="350" type="move" name="center"/>
    </contour>
    <contour>
      <point x="387" y="700" type="move" name="top"/>
    </contour>
  </outline>
</glyph>
<glyph name="U" format="1">
  <advance width="829"/>
  <unicode hex="0055"/>
  <outline>
    <contour>
      <point x="418" y="26" type="curve"/>
      <point x="570" y="26"/>
      <point x="655" y="111"/>
      <point x="655" y="280" type="curve"/>
      <point x="656" y="584" type="line" smooth="yes"/>
      <point x="656" y="662"/>
      <point x="632" y="655"/>
      <point x="545" y="665" type="curve"/>
      <point x="545" y="699" type="line"/>
      <point x="789" y="699" type="line"/>
      <point x="789" y="665" type="line"/>
      <point x="734" y="654"/>
      <point x="715" y="651"/>
      <point x="715" y="612" type="curve"/>
      <point x="707" y="279" type="line" smooth="yes"/>
      <point x="703" y="92"/>
      <point x="597" y="-11"/>
      <point x="416" y="-11" type="curve"/>
      <point x="189" y="-11"/>
      <point x="104" y="102"/>
      <point x="103" y="299" type="curve"/>
      <point x="101" y="592" type="line" smooth="yes"/>
      <point x="101" y="653"/>
      <point x="111" y="659"/>
      <point x="40" y="670" type="curve"/>
      <point x="40" y="699" type="line"/>
      <point x="272" y="699" type="line"/>
      <point x="272" y="670" type="line"/>
      <point x="211" y="661"/>
      <point x="192" y="656"/>
      <point x="192" y="607" type="curve"/>
      <point x="192" y="250" type="line" smooth="yes"/>
      <point x="192" y="103"/>
      <point x="268" y="26"/>
    </contour>
  </outline>
</glyph>
<glyph name="V" format="1">
  <advance width="744"/>
  <unicode hex="0056"/>
  <outline>
    <contour>
      <point x="526" y="673" type="curve"/>
      <point x="526" y="703" type="line"/>
      <point x="585" y="699"/>
      <point x="654" y="699"/>
      <point x="739" y="703" type="curve"/>
      <point x="739" y="673" type="line"/>
      <point x="670" y="596"/>
      <point x="398" y="66"/>
      <point x="377" y="0" type="curve"/>
      <point x="332" y="0" type="line"/>
      <point x="300" y="122"/>
      <point x="50" y="638"/>
      <point x="5" y="672" type="curve"/>
      <point x="5" y="702" type="line"/>
      <point x="87" y="699"/>
      <point x="169" y="699"/>
      <point x="251" y="702" type="curve"/>
      <point x="251" y="672" type="line"/>
      <point x="173" y="646"/>
      <point x="132" y="652"/>
      <point x="165" y="583" type="curve"/>
      <point x="383" y="123" type="line"/>
      <point x="616" y="593" type="line" smooth="yes"/>
      <point x="638" y="638"/>
      <point x="608" y="649"/>
    </contour>
    <contour>
      <point x="361" y="0" type="move" name="bottom"/>
    </contour>
    <contour>
      <point x="361" y="700" type="move" name="top"/>
    </contour>
  </outline>
</glyph>
<glyph name="W" format="1">
  <advance width="1055"/>
  <unicode hex="0057"/>
  <outline>
    <contour>
      <point x="546" y="673" type="curve"/>
      <point x="546" y="700" type="line"/>
      <point x="759" y="703" type="line"/>
      <point x="759" y="673" type="line"/>
      <point x="690" y="596"/>
      <point x="428" y="66"/>
      <point x="407" y="0" type="curve"/>
      <point x="362" y="0" type="line"/>
      <point x="330" y="122"/>
      <point x="50" y="638"/>
      <point x="5" y="672" type="curve"/>
      <point x="5" y="702" type="line"/>
      <point x="87" y="699"/>
      <point x="169" y="699"/>
      <point x="251" y="702" type="curve"/>
      <point x="251" y="672" type="line"/>
      <point x="173" y="646"/>
      <point x="129" y="650"/>
      <point x="165" y="583" type="curve"/>
      <point x="413" y="123" type="line"/>
      <point x="636" y="593" type="line" smooth="yes"/>
      <point x="665" y="654"/>
      <point x="628" y="669"/>
    </contour>
    <contour>
      <point x="837" y="673" type="curve"/>
      <point x="837" y="703" type="line"/>
      <point x="896" y="699"/>
      <point x="965" y="699"/>
      <point x="1050" y="703" type="curve"/>
      <point x="1050" y="673" type="line"/>
      <point x="981" y="596"/>
      <point x="719" y="66"/>
      <point x="698" y="0" type="curve"/>
      <point x="653" y="0" type="line"/>
      <point x="621" y="122"/>
      <point x="372" y="638"/>
      <point x="327" y="672" type="curve"/>
      <point x="327" y="702" type="line"/>
      <point x="573" y="700" type="line"/>
      <point x="573" y="672" type="line"/>
      <point x="495" y="666"/>
      <point x="450" y="661"/>
      <point x="487" y="583" type="curve"/>
      <point x="704" y="123" type="line"/>
      <point x="927" y="593" type="line" smooth="yes"/>
      <point x="948" y="637"/>
      <point x="919" y="649"/>
    </contour>
  </outline>
</glyph>
<glyph name="X" format="1">
  <advance width="696"/>
  <unicode hex="0058"/>
  <outline>
    <contour>
      <point x="691" y="0" type="curve"/>
      <point x="691" y="30" type="line"/>
      <point x="640" y="46"/>
      <point x="354" y="400"/>
      <point x="194" y="601" type="curve"/>
      <point x="142" y="666"/>
      <point x="173" y="659"/>
      <point x="270" y="670" type="curve"/>
      <point x="270" y="700" type="line"/>
      <point x="270" y="700"/>
      <point x="5" y="700"/>
      <point x="5" y="700" type="curve"/>
      <point x="5" y="670" type="line"/>
      <point x="65" y="643"/>
      <point x="341" y="281"/>
      <point x="513" y="86" type="curve"/>
      <point x="548" y="47"/>
      <point x="536" y="36"/>
      <point x="431" y="30" type="curve"/>
      <point x="431" y="0" type="line"/>
      <point x="430" y="1"/>
      <point x="690" y="0"/>
    </contour>
    <contour>
      <point x="127" y="80" type="curve"/>
      <point x="348" y="318" type="line"/>
      <point x="306" y="336" type="line"/>
      <point x="9" y="30" type="line"/>
      <point x="9" y="0" type="line"/>
      <point x="240" y="0" type="line"/>
      <point x="240" y="30" type="line"/>
      <point x="145" y="41"/>
      <point x="95" y="45"/>
    </contour>
    <contour>
      <point x="566" y="608" type="curve"/>
      <point x="333" y="361" type="line"/>
      <point x="377" y="345" type="line"/>
      <point x="687" y="670" type="line"/>
      <point x="687" y="700" type="line"/>
      <point x="478" y="700" type="line"/>
      <point x="478" y="670" type="line"/>
      <point x="552" y="668"/>
      <point x="602" y="647"/>
    </contour>
    <contour>
      <point x="348" y="0" type="move" name="bottom"/>
    </contour>
    <contour>
      <point x="348" y="700" type="move" name="top"/>
    </contour>
  </outline>
</glyph>
<glyph name="Y" format="1">
  <advance width="586"/>
  <unicode hex="0059"/>
  <outline>
    <contour>
      <point x="239" y="700" type="line"/>
      <point x="5" y="700" type="line"/>
      <point x="5" y="675" type="line"/>
      <point x="40" y="651"/>
      <point x="169" y="447"/>
      <point x="251" y="333" type="curve"/>
      <point x="251" y="120" type="line" smooth="yes"/>
      <point x="251" y="37"/>
      <point x="245" y="39"/>
      <point x="170" y="24" type="curve"/>
      <point x="170" y="-4" type="line"/>
      <point x="261" y="2"/>
      <point x="331" y="3"/>
      <point x="422" y="-3" type="curve"/>
      <point x="423" y="24" type="line"/>
      <point x="340" y="41"/>
      <point x="336" y="51"/>
      <point x="336" y="118" type="curve"/>
      <point x="336" y="334" type="line"/>
      <point x="418" y="448"/>
      <point x="537" y="648"/>
      <point x="581" y="675" type="curve"/>
      <point x="581" y="700" type="line"/>
      <point x="378" y="700" type="line"/>
      <point x="378" y="674" type="line"/>
      <point x="465" y="660"/>
      <point x="483" y="629"/>
      <point x="448" y="574" type="curve"/>
      <point x="305" y="351" type="line"/>
      <point x="333" y="353" type="line"/>
      <point x="167" y="593" type="line" smooth="yes"/>
      <point x="138" y="634"/>
      <point x="142" y="663"/>
      <point x="239" y="673" type="curve"/>
    </contour>
    <contour>
      <point x="288" y="0" type="move" name="bottom"/>
    </contour>
    <contour>
      <point x="288" y="700" type="move" name="top"/>
    </contour>
    <contour>
      <point x="50" y="700" type="move" name="topleft"/>
    </contour>
  </outline>
</glyph>
<glyph name="Z" format="1">
  <advance width="770"/>
  <unicode hex="005A"/>
  <outline>
    <contour>
      <point x="171" y="700" type="line"/>
      <point x="177" y="759" type="line"/>
      <point x="144" y="762" type="line"/>
      <point x="111" y="668"/>
      <point x="75" y="585"/>
      <point x="32" y="497" type="curve"/>
      <point x="72" y="490" type="line"/>
      <point x="160" y="611"/>
      <point x="155" y="620"/>
      <point x="282" y="621" type="curve"/>
      <point x="626" y="624" type="line"/>
      <point x="662" y="687" type="line"/>
      <point x="454" y="466"/>
      <point x="248" y="244"/>
      <point x="30" y="22" type="curve"/>
      <point x="38" y="0" type="line"/>
      <point x="653" y="1" type="line"/>
      <point x="654" y="-37" type="line"/>
      <point x="684" y="-38" type="line"/>
      <point x="694" y="33"/>
      <point x="734" y="115"/>
      <point x="740" y="137" type="curve"/>
      <point x="710" y="141" type="line"/>
      <point x="674" y="78" type="line"/>
      <point x="119" y="76" type="line"/>
      <point x="116" y="32" type="line"/>
      <point x="208" y="138"/>
      <point x="558" y="514"/>
      <point x="730" y="676" type="curve"/>
      <point x="735" y="700" type="line"/>
    </contour>
  </outline>
</glyph>
<glyph name="b" format="1">
  <advance width="463"/>
  <unicode hex="0062"/>
  <outline>
    <contour>
      <point x="148" y="76" type="curve"/>
      <point x="143" y="165"/>
      <point x="143" y="231"/>
      <point x="143" y="320" type="curve"/>
      <point x="143" y="434"/>
      <point x="138" y="588"/>
      <point x="153" y="701" type="curve"/>
      <point x="142" y="711" type="line"/>
      <point x="112" y="704"/>
      <point x="55" y="686"/>
      <point x="15" y="672" type="curve"/>
      <point x="15" y="661" type="line"/>
      <point x="64" y="625"/>
      <point x="69" y="502"/>
      <point x="69" y="379" type="curve"/>
      <point x="69" y="249"/>
      <point x="66" y="183"/>
      <point x="54" y="3" type="curve"/>
      <point x="103" y="5"/>
      <point x="153" y="-5"/>
      <point x="210" y="-5" type="curve"/>
      <point x="335" y="-5"/>
      <point x="438" y="103"/>
      <point x="438" y="218" type="curve"/>
      <point x="438" y="315"/>
      <point x="382" y="384"/>
      <point x="304" y="410" type="curve"/>
      <point x="281" y="410"/>
      <point x="172" y="364"/>
      <point x="138" y="343" type="curve"/>
      <point x="140" y="300" type="line"/>
      <point x="150" y="316"/>
      <point x="200" y="334"/>
      <point x="245" y="334" type="curve"/>
      <point x="330" y="334"/>
      <point x="385" y="271"/>
      <point x="385" y="187" type="curve"/>
      <point x="385" y="127"/>
      <point x="360" y="83"/>
      <point x="308" y="57" type="curve"/>
      <point x="237" y="44"/>
      <point x="184" y="60"/>
    </contour>
    <contour>
      <point x="234" y="0" type="move" name="bottom"/>
    </contour>
    <contour>
      <point x="234" y="700" type="move" name="top"/>
    </contour>
  </outline>
</glyph>
<glyph name="c" format="1">
  <advance width="366"/>
  <unicode hex="0063"/>
  <outline>
    <contour>
      <point x="354" y="400" type="curve"/>
      <point x="356" y="395" type="line"/>
      <point x="327" y="309" type="line"/>
      <point x="284" y="326"/>
      <point x="201" y="346"/>
      <point x="161" y="346" type="curve"/>
      <point x="134" y="317"/>
      <point x="110" y="271"/>
      <point x="110" y="198" type="curve"/>
      <point x="110" y="110"/>
      <point x="162" y="43"/>
      <point x="253" y="43" type="curve"/>
      <point x="285" y="43"/>
      <point x="320" y="51"/>
      <point x="338" y="56" type="curve"/>
      <point x="338" y="23" type="line"/>
      <point x="289" y="13"/>
      <point x="219" y="-3"/>
      <point x="158" y="-11" type="curve"/>
      <point x="76" y="19"/>
      <point x="25" y="88"/>
      <point x="25" y="182" type="curve"/>
      <point x="25" y="325"/>
      <point x="167" y="411"/>
      <point x="254" y="411" type="curve"/>
      <point x="288" y="411"/>
      <point x="315" y="400"/>
    </contour>
    <contour>
      <point x="183" y="0" type="move" name="bottom"/>
    </contour>
    <contour>
      <point x="183" y="400" type="move" name="top"/>
    </contour>
  </outline>
</glyph>
<glyph name="d" format="1">
  <advance width="517"/>
  <unicode hex="0064"/>
  <outline>
    <contour>
      <point x="338" y="276" type="curve"/>
      <point x="347" y="392" type="line"/>
      <point x="305" y="401"/>
      <point x="248" y="411"/>
      <point x="210" y="411" type="curve"/>
      <point x="111" y="382"/>
      <point x="25" y="322"/>
      <point x="25" y="191" type="curve"/>
      <point x="25" y="99"/>
      <point x="59" y="6"/>
      <point x="190" y="-10" type="curve"/>
      <point x="230" y="29"/>
      <point x="281" y="69"/>
      <point x="341" y="90" type="curve"/>
      <point x="338" y="192" type="line"/>
      <point x="338" y="113"/>
      <point x="254" y="80"/>
      <point x="206" y="80" type="curve"/>
      <point x="117" y="80"/>
      <point x="68" y="138"/>
      <point x="68" y="209" type="curve"/>
      <point x="68" y="318"/>
      <point x="145" y="343"/>
      <point x="207" y="343" type="curve"/>
      <point x="265" y="343"/>
      <point x="318" y="318"/>
    </contour>
    <contour>
      <point x="336" y="366" type="curve"/>
      <point x="339" y="99" type="line"/>
      <point x="369" y="-11" type="line"/>
      <point x="383" y="-14" type="line"/>
      <point x="429" y="20"/>
      <point x="472" y="48"/>
      <point x="512" y="66" type="curve"/>
      <point x="505" y="94" type="line"/>
      <point x="489" y="89"/>
      <point x="469" y="84"/>
      <point x="447" y="83" type="curve"/>
      <point x="422" y="82"/>
      <point x="412" y="166"/>
      <point x="412" y="227" type="curve"/>
      <point x="412" y="357"/>
      <point x="412" y="627"/>
      <point x="449" y="712" type="curve"/>
      <point x="437" y="721" type="line"/>
      <point x="390" y="682"/>
      <point x="367" y="674"/>
      <point x="274" y="679" type="curve"/>
      <point x="271" y="664" type="line"/>
      <point x="372" y="630"/>
      <point x="334" y="582"/>
    </contour>
    <contour>
      <point x="263" y="0" type="move" name="bottom"/>
    </contour>
    <contour>
      <point x="263" y="200" type="move" name="center"/>
    </contour>
    <contour>
      <point x="263" y="700" type="move" name="top"/>
    </contour>
    <contour>
      <point x="502" y="400" type="move" name="topright"/>
    </contour>
  </outline>
</glyph>
<glyph name="e" format="1">
  <advance width="368"/>
  <unicode hex="0065"/>
  <outline>
    <contour>
      <point x="104" y="216" type="curve"/>
      <point x="104" y="121"/>
      <point x="157" y="50"/>
      <point x="229" y="50" type="curve"/>
      <point x="268" y="50"/>
      <point x="306" y="63"/>
      <point x="326" y="72" type="curve"/>
      <point x="337" y="46" type="line"/>
      <point x="294" y="29"/>
      <point x="251" y="8"/>
      <point x="206" y="-10" type="curve"/>
      <point x="91" y="-10"/>
      <point x="25" y="83"/>
      <point x="25" y="197" type="curve"/>
      <point x="25" y="247"/>
      <point x="34" y="292"/>
      <point x="51" y="325" type="curve"/>
      <point x="85" y="356"/>
      <point x="161" y="399"/>
      <point x="225" y="411" type="curve"/>
      <point x="306" y="386"/>
      <point x="336" y="336"/>
      <point x="363" y="263" type="curve"/>
      <point x="361" y="260" type="line"/>
      <point x="285" y="236"/>
      <point x="159" y="199"/>
      <point x="101" y="174" type="curve"/>
      <point x="95" y="209" type="line"/>
      <point x="151" y="221"/>
      <point x="216" y="241"/>
      <point x="269" y="267" type="curve"/>
      <point x="252" y="306"/>
      <point x="206" y="360"/>
      <point x="179" y="360" type="curve"/>
      <point x="141" y="360"/>
      <point x="104" y="294"/>
    </contour>
    <contour>
      <point x="184" y="0" type="move" name="bottom"/>
    </contour>
    <contour>
      <point x="331" y="10" type="move" name="ogonek"/>
    </contour>
    <contour>
      <point x="192" y="400" type="move" name="top"/>
    </contour>
  </outline>
</glyph>
<glyph name="f" format="1">
  <advance width="337"/>
  <unicode hex="0066"/>
  <outline>
    <contour>
      <point x="21" y="351" type="line"/>
      <point x="119" y="388" type="line"/>
      <point x="220" y="346" type="line"/>
      <point x="21" y="328" type="line"/>
    </contour>
    <contour>
      <point x="195" y="548" type="curve"/>
      <point x="195" y="445"/>
      <point x="200" y="91"/>
      <point x="206" y="63" type="curve"/>
      <point x="211" y="40"/>
      <point x="219" y="40"/>
      <point x="300" y="18" type="curve"/>
      <point x="300" y="-7" type="line"/>
      <point x="199" y="5"/>
      <point x="114" y="1"/>
      <point x="35" y="-8" type="curve"/>
      <point x="35" y="17" type="line"/>
      <point x="103" y="33"/>
      <point x="116" y="43"/>
      <point x="119" y="68" type="curve"/>
      <point x="126" y="128"/>
      <point x="116" y="451"/>
      <point x="115" y="517" type="curve"/>
      <point x="114" y="633"/>
      <point x="176" y="711"/>
      <point x="294" y="711" type="curve"/>
      <point x="334" y="711"/>
      <point x="383" y="708"/>
      <point x="417" y="693" type="curve"/>
      <point x="405" y="667"/>
      <point x="390" y="637"/>
      <point x="379" y="613" type="curve"/>
      <point x="369" y="615" type="line"/>
      <point x="369" y="615"/>
      <point x="327" y="667"/>
      <point x="278" y="667" type="curve"/>
      <point x="236" y="667"/>
      <point x="195" y="636"/>
    </contour>
    <contour>
      <point x="315" y="342" type="line"/>
      <point x="189" y="342" type="line"/>
      <point x="189" y="398" type="line"/>
      <point x="355" y="398" type="line"/>
      <point x="355" y="386" type="line"/>
    </contour>
    <contour>
      <point x="169" y="0" type="move" name="bottom"/>
    </contour>
    <contour>
      <point x="169" y="700" type="move" name="top"/>
    </contour>
  </outline>
</glyph>
<glyph name="g" format="1">
  <advance width="510"/>
  <unicode hex="0067"/>
  <outline>
    <contour>
      <point x="161" y="-10" type="curve"/>
      <point x="115" y="16"/>
      <point x="97" y="27"/>
      <point x="52" y="44" type="curve"/>
      <point x="52" y="92" type="line"/>
      <point x="101" y="87"/>
      <point x="122" y="89"/>
      <point x="174" y="109" type="curve"/>
      <point x="97" y="133"/>
      <point x="57" y="185"/>
      <point x="57" y="253" type="curve"/>
      <point x="57" y="333"/>
      <point x="117" y="410"/>
      <point x="232" y="410" type="curve"/>
      <point x="311" y="410"/>
      <point x="410" y="366"/>
      <point x="510" y="349" type="curve"/>
      <point x="498" y="301" type="line"/>
      <point x="381" y="329" type="line"/>
      <point x="400" y="313"/>
      <point x="411" y="269"/>
      <point x="411" y="248" type="curve"/>
      <point x="411" y="116"/>
      <point x="258" y="102"/>
      <point x="168" y="79" type="curve"/>
      <point x="214" y="73"/>
      <point x="274" y="67"/>
      <point x="340" y="53" type="curve"/>
      <point x="398" y="28"/>
      <point x="454" y="-26"/>
      <point x="454" y="-99" type="curve"/>
      <point x="454" y="-201"/>
      <point x="367" y="-259"/>
      <point x="249" y="-259" type="curve"/>
      <point x="131" y="-259"/>
      <point x="35" y="-214"/>
      <point x="35" y="-113" type="curve"/>
      <point x="65" y="-70"/>
      <point x="112" y="-27"/>
      <point x="173" y="22" type="curve"/>
      <point x="236" y="15" type="line"/>
      <point x="181" y="5"/>
      <point x="117" y="-41"/>
      <point x="117" y="-107" type="curve"/>
      <point x="117" y="-178"/>
      <point x="185" y="-220"/>
      <point x="277" y="-220" type="curve"/>
      <point x="343" y="-220"/>
      <point x="412" y="-190"/>
      <point x="411" y="-121" type="curve"/>
      <point x="410" y="-44"/>
      <point x="300" y="16"/>
    </contour>
    <contour>
      <point x="232" y="347" type="curve"/>
      <point x="182" y="348"/>
      <point x="135" y="310"/>
      <point x="136" y="247" type="curve"/>
      <point x="137" y="186"/>
      <point x="175" y="139"/>
      <point x="242" y="139" type="curve"/>
      <point x="299" y="139"/>
      <point x="341" y="179"/>
      <point x="340" y="244" type="curve"/>
      <point x="339" y="291"/>
      <point x="307" y="346"/>
    </contour>
    <contour>
      <point x="235" y="-250" type="move" name="bottom"/>
    </contour>
    <contour>
      <point x="235" y="400" type="move" name="top"/>
    </contour>
  </outline>
</glyph>
<glyph name="h" format="1">
  <advance width="502"/>
  <unicode hex="0068"/>
  <outline>
    <contour>
      <point x="137" y="337" type="curve"/>
      <point x="137" y="294" type="line"/>
      <point x="180" y="322"/>
      <point x="220" y="336"/>
      <point x="270" y="336" type="curve"/>
      <point x="364" y="336"/>
      <point x="429" y="274"/>
      <point x="429" y="188" type="curve"/>
      <point x="429" y="130"/>
      <point x="408" y="90"/>
      <point x="372" y="58" type="curve"/>
      <point x="351" y="58"/>
      <point x="337" y="61"/>
      <point x="308" y="66" type="curve"/>
      <point x="283" y="5" type="line"/>
      <point x="302" y="1"/>
      <point x="337" y="0"/>
      <point x="356" y="0" type="curve"/>
      <point x="378" y="0"/>
      <point x="477" y="114"/>
      <point x="477" y="218" type="curve"/>
      <point x="477" y="316"/>
      <point x="423" y="413"/>
      <point x="308" y="413" type="curve"/>
      <point x="282" y="413"/>
      <point x="159" y="342"/>
    </contour>
    <contour>
      <point x="166" y="63" type="curve"/>
      <point x="160" y="91"/>
      <point x="160" y="442"/>
      <point x="160" y="497" type="curve"/>
      <point x="160" y="627"/>
      <point x="184" y="704"/>
      <point x="184" y="703" type="curve"/>
      <point x="169" y="710" type="line"/>
      <point x="111" y="641"/>
      <point x="43" y="606"/>
      <point x="10" y="595" type="curve"/>
      <point x="10" y="580" type="line"/>
      <point x="55" y="571"/>
      <point x="79" y="538"/>
      <point x="80" y="422" type="curve"/>
      <point x="81" y="326"/>
      <point x="86" y="128"/>
      <point x="79" y="68" type="curve"/>
      <point x="76" y="43"/>
      <point x="63" y="33"/>
      <point x="25" y="17" type="curve"/>
      <point x="25" y="-8" type="line"/>
      <point x="74" y="1"/>
      <point x="159" y="5"/>
      <point x="220" y="-7" type="curve"/>
      <point x="220" y="18" type="line"/>
      <point x="179" y="40"/>
      <point x="171" y="40"/>
    </contour>
    <contour>
      <point x="261" y="0" type="move" name="bottom"/>
    </contour>
    <contour>
      <point x="261" y="350" type="move" name="center"/>
    </contour>
    <contour>
      <point x="261" y="700" type="move" name="top"/>
    </contour>
  </outline>
</glyph>
<glyph name="j" format="1">
  <advance width="238"/>
  <unicode hex="006A"/>
  <outline>
    <contour>
      <point x="111" y="632" type="curve"/>
      <point x="111" y="653"/>
      <point x="125" y="667"/>
      <point x="146" y="667" type="curve"/>
      <point x="167" y="667"/>
      <point x="182" y="653"/>
      <point x="182" y="632" type="curve"/>
      <point x="182" y="611"/>
      <point x="168" y="596"/>
      <point x="147" y="596" type="curve"/>
      <point x="126" y="596"/>
      <point x="111" y="611"/>
    </contour>
    <contour>
      <point x="180" y="259" type="curve"/>
      <point x="180" y="204"/>
      <point x="178" y="31"/>
      <point x="184" y="3" type="curve"/>
      <point x="189" y="-20"/>
      <point x="122" y="-161"/>
      <point x="63" y="-260" type="curve"/>
      <point x="33" y="-243" type="line"/>
      <point x="81" y="-167"/>
      <point x="99" y="-52"/>
      <point x="99" y="58" type="curve"/>
      <point x="99" y="118"/>
      <point x="103" y="200"/>
      <point x="103" y="265" type="curve"/>
      <point x="103" y="341"/>
      <point x="75" y="333"/>
      <point x="30" y="342" type="curve"/>
      <point x="30" y="357" type="line"/>
      <point x="63" y="368"/>
      <point x="132" y="391"/>
      <point x="178" y="412" type="curve"/>
      <point x="193" y="405" type="line"/>
      <point x="193" y="406"/>
      <point x="180" y="348"/>
    </contour>
  </outline>
</glyph>
<glyph name="k" format="1">
  <advance width="508"/>
  <unicode hex="006B"/>
  <outline>
    <contour>
      <point x="84" y="-10" type="curve"/>
      <point x="171" y="-2" type="line"/>
      <point x="165" y="26"/>
      <point x="165" y="422"/>
      <point x="165" y="497" type="curve"/>
      <point x="165" y="629"/>
      <point x="189" y="707"/>
      <point x="189" y="706" type="curve"/>
      <point x="174" y="713" type="line"/>
      <point x="106" y="682"/>
      <point x="48" y="666"/>
      <point x="15" y="655" type="curve"/>
      <point x="15" y="640" type="line"/>
      <point x="60" y="631"/>
      <point x="84" y="598"/>
      <point x="85" y="482" type="curve"/>
      <point x="86" y="386"/>
      <point x="91" y="50"/>
    </contour>
    <contour>
      <point x="130" y="397" type="curve"/>
      <point x="146" y="325" type="line"/>
      <point x="234" y="329"/>
      <point x="311" y="330"/>
      <point x="402" y="327" type="curve"/>
      <point x="391" y="351" type="line"/>
      <point x="284" y="243"/>
      <point x="245" y="217"/>
      <point x="130" y="179" type="curve"/>
      <point x="134" y="154" type="line"/>
      <point x="271" y="196" type="line"/>
      <point x="327" y="247"/>
      <point x="412" y="323"/>
      <point x="478" y="372" type="curve"/>
      <point x="479" y="401" type="line"/>
      <point x="363" y="398"/>
      <point x="246" y="396"/>
    </contour>
    <contour>
      <point x="418" y="98" type="curve"/>
      <point x="281" y="222" type="line"/>
      <point x="204" y="186" type="line"/>
      <point x="269" y="139"/>
      <point x="350" y="59"/>
      <point x="407" y="-18" type="curve"/>
      <point x="503" y="40" type="line"/>
      <point x="491" y="64" type="line"/>
      <point x="464" y="62"/>
      <point x="442" y="76"/>
    </contour>
  </outline>
</glyph>
<glyph name="l" format="1">
  <advance width="250"/>
  <unicode hex="006C"/>
  <outline>
    <contour>
      <point x="171" y="63" type="curve"/>
      <point x="165" y="91"/>
      <point x="165" y="442"/>
      <point x="165" y="497" type="curve"/>
      <point x="165" y="629"/>
      <point x="189" y="707"/>
      <point x="189" y="706" type="curve"/>
      <point x="174" y="713" type="line"/>
      <point x="116" y="642"/>
      <point x="48" y="606"/>
      <point x="15" y="595" type="curve"/>
      <point x="15" y="580" type="line"/>
      <point x="60" y="571"/>
      <point x="84" y="538"/>
      <point x="85" y="422" type="curve"/>
      <point x="86" y="326"/>
      <point x="91" y="128"/>
      <point x="84" y="68" type="curve"/>
      <point x="81" y="43"/>
      <point x="68" y="33"/>
      <point x="30" y="17" type="curve"/>
      <point x="30" y="-8" type="line"/>
      <point x="79" y="1"/>
      <point x="164" y="5"/>
      <point x="235" y="-7" type="curve"/>
      <point x="235" y="18" type="line"/>
      <point x="184" y="40"/>
      <point x="176" y="40"/>
    </contour>
    <contour>
      <point x="125" y="0" type="move" name="bottom"/>
    </contour>
    <contour>
      <point x="125" y="350" type="move" name="center"/>
    </contour>
    <contour>
      <point x="125" y="700" type="move" name="top"/>
    </contour>
    <contour>
      <point x="225" y="700" type="move" name="topright"/>
    </contour>
  </outline>
</glyph>
<glyph name="m" format="1">
  <advance width="806"/>
  <unicode hex="006D"/>
  <outline>
    <contour>
      <point x="178" y="66" type="curve"/>
      <point x="175" y="121"/>
      <point x="176" y="274"/>
      <point x="176" y="326" type="curve"/>
      <point x="176" y="364"/>
      <point x="136" y="404"/>
      <point x="94" y="410" type="curve"/>
      <point x="30" y="364" type="line"/>
      <point x="30" y="345" type="line"/>
      <point x="78" y="328"/>
      <point x="97" y="287"/>
      <point x="96" y="240" type="curve"/>
      <point x="94" y="66" type="line" smooth="yes"/>
      <point x="94" y="28"/>
      <point x="94" y="25"/>
      <point x="50" y="20" type="curve"/>
      <point x="50" y="-5" type="line"/>
      <point x="107" y="1"/>
      <point x="156" y="1"/>
      <point x="226" y="-5" type="curve"/>
      <point x="226" y="20" type="line"/>
      <point x="177" y="29"/>
      <point x="180" y="34"/>
    </contour>
    <contour>
      <point x="457" y="66" type="curve"/>
      <point x="455" y="307" type="line" smooth="yes"/>
      <point x="455" y="366"/>
      <point x="409" y="410"/>
      <point x="353" y="410" type="curve"/>
      <point x="307" y="410"/>
      <point x="231" y="367"/>
      <point x="162" y="326" type="curve"/>
      <point x="166" y="282" type="line"/>
      <point x="207" y="323"/>
      <point x="249" y="335"/>
      <point x="290" y="335" type="curve"/>
      <point x="353" y="335"/>
      <point x="376" y="305"/>
      <point x="376" y="240" type="curve"/>
      <point x="376" y="192"/>
      <point x="375" y="119"/>
      <point x="374" y="66" type="curve"/>
      <point x="373" y="28"/>
      <point x="372" y="25"/>
      <point x="318" y="20" type="curve"/>
      <point x="318" y="-5" type="line"/>
      <point x="375" y="1"/>
      <point x="434" y="1"/>
      <point x="514" y="-5" type="curve"/>
      <point x="514" y="20" type="line"/>
      <point x="455" y="29"/>
      <point x="457" y="35"/>
    </contour>
    <contour>
      <point x="739" y="66" type="curve"/>
      <point x="737" y="307" type="line" smooth="yes"/>
      <point x="737" y="366"/>
      <point x="691" y="410"/>
      <point x="635" y="410" type="curve"/>
      <point x="589" y="410"/>
      <point x="513" y="367"/>
      <point x="444" y="326" type="curve"/>
      <point x="448" y="282" type="line"/>
      <point x="489" y="323"/>
      <point x="531" y="335"/>
      <point x="572" y="335" type="curve"/>
      <point x="635" y="335"/>
      <point x="658" y="305"/>
      <point x="658" y="240" type="curve"/>
      <point x="658" y="192"/>
      <point x="657" y="119"/>
      <point x="656" y="66" type="curve"/>
      <point x="655" y="28"/>
      <point x="654" y="25"/>
      <point x="600" y="20" type="curve"/>
      <point x="600" y="-5" type="line"/>
      <point x="657" y="1"/>
      <point x="716" y="1"/>
      <point x="796" y="-5" type="curve"/>
      <point x="796" y="20" type="line"/>
      <point x="737" y="29"/>
      <point x="739" y="35"/>
    </contour>
    <contour>
      <point x="403" y="0" type="move" name="bottom"/>
    </contour>
    <contour>
      <point x="403" y="400" type="move" name="top"/>
    </contour>
  </outline>
</glyph>
<glyph name="p" format="1">
  <advance width="530"/>
  <unicode hex="0070"/>
  <outline>
    <contour>
      <point x="154" y="-185" type="curve"/>
      <point x="151" y="-120"/>
      <point x="151" y="264"/>
      <point x="151" y="316" type="curve"/>
      <point x="151" y="354"/>
      <point x="138" y="391"/>
      <point x="100" y="408" type="curve"/>
      <point x="15" y="335" type="line"/>
      <point x="15" y="316" type="line"/>
      <point x="70" y="295"/>
      <point x="73" y="266"/>
      <point x="73" y="220" type="curve"/>
      <point x="73" y="80"/>
      <point x="74" y="-35"/>
      <point x="69" y="-185" type="curve"/>
      <point x="68" y="-213"/>
      <point x="69" y="-226"/>
      <point x="25" y="-231" type="curve"/>
      <point x="25" y="-256" type="line"/>
      <point x="82" y="-250"/>
      <point x="131" y="-250"/>
      <point x="211" y="-256" type="curve"/>
      <point x="211" y="-231" type="line"/>
      <point x="152" y="-222"/>
      <point x="155" y="-207"/>
    </contour>
    <contour>
      <point x="146" y="319" type="curve"/>
      <point x="146" y="272" type="line"/>
      <point x="178" y="305"/>
      <point x="224" y="336"/>
      <point x="282" y="336" type="curve"/>
      <point x="370" y="336"/>
      <point x="426" y="280"/>
      <point x="426" y="199" type="curve"/>
      <point x="426" y="118"/>
      <point x="378" y="51"/>
      <point x="291" y="51" type="curve"/>
      <point x="217" y="51"/>
      <point x="155" y="101"/>
      <point x="150" y="161" type="curve"/>
      <point x="140" y="51" type="line"/>
      <point x="200" y="37"/>
      <point x="281" y="-2"/>
      <point x="321" y="-21" type="curve"/>
      <point x="436" y="16"/>
      <point x="505" y="88"/>
      <point x="505" y="209" type="curve"/>
      <point x="505" y="330"/>
      <point x="408" y="411"/>
      <point x="291" y="411" type="curve"/>
      <point x="253" y="411"/>
      <point x="188" y="348"/>
    </contour>
    <contour>
      <point x="263" y="0" type="move" name="bottom"/>
    </contour>
    <contour>
      <point x="263" y="400" type="move" name="top"/>
    </contour>
  </outline>
</glyph>
<glyph name="q" format="1">
  <advance width="516"/>
  <unicode hex="0071"/>
  <outline>
    <contour>
      <point x="375" y="366" type="curve"/>
      <point x="375" y="334"/>
      <point x="375" y="-114"/>
      <point x="372" y="-179" type="curve"/>
      <point x="371" y="-201"/>
      <point x="374" y="-216"/>
      <point x="315" y="-225" type="curve"/>
      <point x="315" y="-250" type="line"/>
      <point x="395" y="-244"/>
      <point x="444" y="-244"/>
      <point x="501" y="-250" type="curve"/>
      <point x="501" y="-225" type="line"/>
      <point x="457" y="-220"/>
      <point x="458" y="-207"/>
      <point x="457" y="-179" type="curve"/>
      <point x="452" y="-29"/>
      <point x="453" y="85"/>
      <point x="453" y="220" type="curve"/>
      <point x="453" y="317"/>
      <point x="452" y="347"/>
      <point x="479" y="411" type="curve"/>
      <point x="460" y="420" type="line"/>
      <point x="440" y="400"/>
      <point x="395" y="374"/>
    </contour>
    <contour>
      <point x="375" y="273" type="curve"/>
      <point x="433" y="366" type="line"/>
      <point x="386" y="388"/>
      <point x="342" y="411"/>
      <point x="260" y="411" type="curve"/>
      <point x="132" y="411"/>
      <point x="25" y="326"/>
      <point x="25" y="189" type="curve"/>
      <point x="25" y="88"/>
      <point x="71" y="14"/>
      <point x="209" y="-15" type="curve"/>
      <point x="249" y="-6"/>
      <point x="330" y="38"/>
      <point x="390" y="52" type="curve"/>
      <point x="375" y="140" type="line"/>
      <point x="356" y="87"/>
      <point x="315" y="51"/>
      <point x="239" y="51" type="curve"/>
      <point x="160" y="51"/>
      <point x="104" y="118"/>
      <point x="104" y="199" type="curve"/>
      <point x="104" y="280"/>
      <point x="160" y="348"/>
      <point x="248" y="348" type="curve"/>
      <point x="306" y="348"/>
      <point x="354" y="323"/>
    </contour>
    <contour>
      <point x="261" y="0" type="move" name="bottom"/>
    </contour>
    <contour>
      <point x="261" y="400" type="move" name="top"/>
    </contour>
  </outline>
</glyph>
<glyph name="r" format="1">
  <advance width="383"/>
  <unicode hex="0072"/>
  <outline>
    <contour>
      <point x="177" y="229" type="curve"/>
      <point x="176" y="280" type="line"/>
      <point x="194" y="282"/>
      <point x="261" y="409"/>
      <point x="310" y="411" type="curve"/>
      <point x="334" y="412"/>
      <point x="357" y="410"/>
      <point x="378" y="408" type="curve"/>
      <point x="364" y="314" type="line"/>
      <point x="343" y="317"/>
      <point x="310" y="320"/>
      <point x="297" y="320" type="curve"/>
      <point x="250" y="320"/>
      <point x="193" y="264"/>
    </contour>
    <contour>
      <point x="180" y="279" type="curve"/>
      <point x="180" y="214"/>
      <point x="178" y="91"/>
      <point x="184" y="63" type="curve"/>
      <point x="189" y="40"/>
      <point x="197" y="40"/>
      <point x="248" y="18" type="curve"/>
      <point x="248" y="-7" type="line"/>
      <point x="177" y="5"/>
      <point x="92" y="1"/>
      <point x="33" y="-8" type="curve"/>
      <point x="33" y="17" type="line"/>
      <point x="81" y="33"/>
      <point x="94" y="43"/>
      <point x="97" y="68" type="curve"/>
      <point x="104" y="128"/>
      <point x="103" y="200"/>
      <point x="103" y="245" type="curve"/>
      <point x="103" y="321"/>
      <point x="75" y="343"/>
      <point x="30" y="352" type="curve"/>
      <point x="30" y="367" type="line"/>
      <point x="63" y="378"/>
      <point x="112" y="406"/>
      <point x="158" y="432" type="curve"/>
      <point x="173" y="425" type="line"/>
      <point x="173" y="426"/>
      <point x="177" y="358"/>
    </contour>
    <contour>
      <point x="197" y="0" type="move" name="bottom"/>
    </contour>
    <contour>
      <point x="197" y="400" type="move" name="top"/>
    </contour>
  </outline>
</glyph>
<glyph name="t" format="1">
  <advance width="335"/>
  <unicode hex="0074"/>
  <outline>
    <contour>
      <point x="129" y="335" type="curve"/>
      <point x="129" y="399" type="line"/>
      <point x="233" y="402"/>
      <point x="288" y="402"/>
      <point x="328" y="411" type="curve"/>
      <point x="335" y="406" type="line"/>
      <point x="306" y="326" type="line"/>
      <point x="247" y="334"/>
      <point x="188" y="337"/>
    </contour>
    <contour>
      <point x="141" y="389" type="curve"/>
      <point x="146" y="341" type="line"/>
      <point x="145" y="125" type="line" smooth="yes"/>
      <point x="145" y="80"/>
      <point x="161" y="58"/>
      <point x="206" y="56" type="curve"/>
      <point x="226" y="55"/>
      <point x="276" y="57"/>
      <point x="312" y="75" type="curve"/>
      <point x="323" y="58" type="line"/>
      <point x="323" y="58"/>
      <point x="248" y="-10"/>
      <point x="185" y="-10" type="curve"/>
      <point x="79" y="-10"/>
      <point x="68" y="53"/>
      <point x="69" y="87" type="curve"/>
      <point x="73" y="288" type="line" smooth="yes"/>
      <point x="74" y="333"/>
      <point x="69" y="343"/>
      <point x="20" y="362" type="curve"/>
      <point x="20" y="378" type="line"/>
      <point x="67" y="421"/>
      <point x="88" y="447"/>
      <point x="136" y="519" type="curve"/>
      <point x="154" y="517" type="line"/>
      <point x="145" y="474"/>
      <point x="142" y="432"/>
    </contour>
    <contour>
      <point x="170" y="0" type="move" name="bottom"/>
    </contour>
    <contour>
      <point x="170" y="200" type="move" name="center"/>
    </contour>
    <contour>
      <point x="170" y="400" type="move" name="top"/>
    </contour>
    <contour>
      <point x="315" y="400" type="move" name="topright"/>
    </contour>
  </outline>
</glyph>
<glyph name="u" format="1">
  <advance width="535"/>
  <unicode hex="0075"/>
  <outline>
    <contour>
      <point x="364" y="98" type="curve"/>
      <point x="370" y="64" type="line"/>
      <point x="292" y="21"/>
      <point x="224" y="-11"/>
      <point x="195" y="-11" type="curve"/>
      <point x="104" y="-11"/>
      <point x="88" y="32"/>
      <point x="88" y="80" type="curve"/>
      <point x="88" y="162"/>
      <point x="87" y="249"/>
      <point x="87" y="301" type="curve"/>
      <point x="87" y="333"/>
      <point x="76" y="349"/>
      <point x="30" y="360" type="curve"/>
      <point x="30" y="385" type="line"/>
      <point x="101" y="400"/>
      <point x="125" y="411"/>
      <point x="167" y="428" type="curve"/>
      <point x="180" y="416" type="line"/>
      <point x="172" y="384"/>
      <point x="168" y="351"/>
      <point x="168" y="325" type="curve"/>
      <point x="168" y="272"/>
      <point x="167" y="188"/>
      <point x="167" y="135" type="curve"/>
      <point x="167" y="87"/>
      <point x="172" y="53"/>
      <point x="239" y="53" type="curve"/>
      <point x="271" y="53"/>
      <point x="324" y="67"/>
    </contour>
    <contour>
      <point x="452" y="-10" type="curve"/>
      <point x="377" y="-10"/>
      <point x="362" y="39"/>
      <point x="362" y="117" type="curve"/>
      <point x="362" y="305" type="line" smooth="yes"/>
      <point x="362" y="336"/>
      <point x="355" y="354"/>
      <point x="292" y="372" type="curve"/>
      <point x="295" y="399" type="line"/>
      <point x="355" y="403"/>
      <point x="410" y="406"/>
      <point x="447" y="423" type="curve"/>
      <point x="459" y="411" type="line"/>
      <point x="443" y="350"/>
      <point x="442" y="310"/>
      <point x="442" y="277" type="curve"/>
      <point x="442" y="109" type="line" smooth="yes"/>
      <point x="442" y="72"/>
      <point x="478" y="53"/>
      <point x="519" y="67" type="curve"/>
      <point x="530" y="49" type="line"/>
      <point x="504" y="24"/>
      <point x="476" y="6"/>
    </contour>
    <contour>
      <point x="273" y="0" type="move" name="bottom"/>
    </contour>
    <contour>
      <point x="481" y="10" type="move" name="ogonek"/>
    </contour>
    <contour>
      <point x="273" y="400" type="move" name="top"/>
    </contour>
    <contour>
      <point x="513" y="400" type="move" name="topright"/>
    </contour>
  </outline>
</glyph>
<glyph name="w" format="1">
  <advance width="652"/>
  <unicode hex="0077"/>
  <outline>
    <contour>
      <point x="472" y="0" type="curve"/>
      <point x="432" y="0" type="line"/>
      <point x="420" y="45"/>
      <point x="295" y="327"/>
      <point x="250" y="376" type="curve"/>
      <point x="250" y="400" type="line"/>
      <point x="261" y="400" type="line"/>
      <point x="402" y="400" type="line"/>
      <point x="432" y="400" type="line"/>
      <point x="432" y="375" type="line"/>
      <point x="386" y="355"/>
      <point x="363" y="351"/>
      <point x="379" y="314" type="curve"/>
      <point x="474" y="92" type="line"/>
      <point x="559" y="319" type="line" smooth="yes"/>
      <point x="569" y="345"/>
      <point x="566" y="360"/>
      <point x="506" y="375" type="curve"/>
      <point x="506" y="400" type="line"/>
      <point x="647" y="400" type="line"/>
      <point x="647" y="377" type="line"/>
      <point x="606" y="331"/>
      <point x="484" y="39"/>
    </contour>
    <contour>
      <point x="229" y="92" type="line"/>
      <point x="307" y="308" type="line"/>
      <point x="332" y="260" type="line"/>
      <point x="285" y="158"/>
      <point x="234" y="25"/>
      <point x="227" y="0" type="curve"/>
      <point x="187" y="0" type="line"/>
      <point x="168" y="72"/>
      <point x="42" y="331"/>
      <point x="5" y="376" type="curve"/>
      <point x="5" y="400" type="line"/>
      <point x="187" y="400" type="line"/>
      <point x="187" y="375" type="line"/>
      <point x="141" y="355"/>
      <point x="118" y="351"/>
      <point x="134" y="314" type="curve"/>
    </contour>
  </outline>
</glyph>
<glyph name="x" format="1">
  <advance width="482"/>
  <unicode hex="0078"/>
  <outline>
    <contour>
      <point x="310" y="313" type="curve"/>
      <point x="251" y="239" type="line"/>
      <point x="272" y="211" type="line"/>
      <point x="365" y="306" type="line" smooth="yes"/>
      <point x="396" y="338"/>
      <point x="417" y="355"/>
      <point x="447" y="373" type="curve"/>
      <point x="447" y="400" type="line"/>
      <point x="336" y="400" type="line"/>
      <point x="339" y="364"/>
      <point x="327" y="335"/>
    </contour>
    <contour>
      <point x="244" y="182" type="curve"/>
      <point x="220" y="208" type="line"/>
      <point x="186" y="168"/>
      <point x="141" y="125"/>
      <point x="124" y="109" type="curve"/>
      <point x="89" y="77"/>
      <point x="61" y="43"/>
      <point x="5" y="25" type="curve"/>
      <point x="5" y="0" type="line"/>
      <point x="134" y="1" type="line"/>
      <point x="135" y="27"/>
      <point x="148" y="55"/>
      <point x="165" y="77" type="curve"/>
      <point x="176" y="91"/>
      <point x="223" y="153"/>
    </contour>
    <contour>
      <point x="138" y="280" type="curve"/>
      <point x="305" y="77" type="line" smooth="yes"/>
      <point x="333" y="43"/>
      <point x="327" y="20"/>
      <point x="325" y="0" type="curve"/>
      <point x="477" y="0" type="line"/>
      <point x="477" y="25" type="line"/>
      <point x="417" y="47"/>
      <point x="217" y="297"/>
      <point x="154" y="400" type="curve"/>
      <point x="15" y="400" type="line"/>
      <point x="15" y="375" type="line"/>
      <point x="57" y="365"/>
      <point x="100" y="327"/>
    </contour>
    <contour>
      <point x="241" y="0" type="move" name="bottom"/>
    </contour>
    <contour>
      <point x="241" y="400" type="move" name="top"/>
    </contour>
  </outline>
</glyph>
<glyph name="y" format="1">
  <advance width="427"/>
  <unicode hex="0079"/>
  <outline>
    <contour>
      <point x="123" y="314" type="curve"/>
      <point x="223" y="26" type="line"/>
      <point x="172" y="-81" type="line"/>
      <point x="161" y="-22"/>
      <point x="43" y="329"/>
      <point x="5" y="376" type="curve"/>
      <point x="5" y="400" type="line"/>
      <point x="176" y="400" type="line"/>
      <point x="176" y="375" type="line"/>
      <point x="130" y="355"/>
      <point x="110" y="351"/>
    </contour>
    <contour>
      <point x="68" y="-250" type="line"/>
      <point x="70" y="-235" type="line"/>
      <point x="123" y="-178"/>
      <point x="291" y="188"/>
      <point x="337" y="319" type="curve"/>
      <point x="345" y="343"/>
      <point x="345" y="360"/>
      <point x="281" y="375" type="curve"/>
      <point x="281" y="400" type="line"/>
      <point x="422" y="400" type="line"/>
      <point x="422" y="377" type="line"/>
      <point x="396" y="348"/>
      <point x="184" y="-123"/>
      <point x="141" y="-250" type="curve"/>
    </contour>
    <contour>
      <point x="214" y="0" type="move" name="bottom"/>
    </contour>
    <contour>
      <point x="214" y="400" type="move" name="top"/>
    </contour>
  </outline>
</glyph>
<glyph name="z" format="1">
  <advance width="613"/>
  <unicode hex="007A"/>
  <outline>
    <contour>
      <point x="427" y="324" type="line"/>
      <point x="105" y="321" type="line"/>
      <point x="77" y="258" type="line"/>
      <point x="43" y="263" type="line"/>
      <point x="113" y="432" type="line"/>
      <point x="145" y="428" type="line"/>
      <point x="133" y="398" type="line"/>
      <point x="588" y="398" type="line"/>
      <point x="587" y="357" type="line"/>
      <point x="420" y="294"/>
      <point x="269" y="157"/>
      <point x="114" y="64" type="curve"/>
      <point x="526" y="74" type="line"/>
      <point x="533" y="103" type="line"/>
      <point x="564" y="101" type="line"/>
      <point x="536" y="-49" type="line"/>
      <point x="505" y="-47" type="line"/>
      <point x="512" y="1" type="line"/>
      <point x="349" y="3"/>
      <point x="162" y="0"/>
      <point x="29" y="-9" type="curve"/>
      <point x="25" y="44" type="line"/>
    </contour>
  </outline>
</glyph>
<glyph name="a_macr" format="1">
  <advance width="402"/>
  <unicode hex="0101"/>
  <outline>
    <contour>
      <point x="77" y="486" type="curve"/>
      <point x="64" y="499" type="line"/>
      <point x="146" y="595" type="line"/>
      <point x="254" y="584"/>
      <point x="282" y="611"/>
      <point x="345" y="675" type="curve"/>
      <point x="365" y="658" type="line"/>
      <point x="334" y="641"/>
      <point x="298" y="567"/>
      <point x="277" y="522" type="curve"/>
      <point x="176" y="528"/>
      <point x="156" y="540"/>
    </contour>
    <component base="a"/>
    <contour>
      <point x="213" y="380" type="move" name="_top"/>
    </contour>
    <contour>
      <point x="300" y="0" type="move" name="bottom"/>
    </contour>
    <contour>
      <point x="540" y="10" type="move" name="ogonek"/>
    </contour>
    <contour>
      <point x="300" y="400" type="move" name="top"/>
    </contour>
  </outline>
</glyph>
<glyph name="e_macr" format="1">
  <advance width="368"/>
  <unicode hex="0113"/>
  <outline>
    <contour>
      <point x="56" y="457" type="curve"/>
      <point x="40" y="472" type="line"/>
      <point x="139" y="589" type="line"/>
      <point x="269" y="600"/>
      <point x="304" y="608"/>
      <point x="360" y="665" type="curve"/>
      <point x="384" y="645" type="line"/>
      <point x="347" y="594"/>
      <point x="323" y="553"/>
      <point x="298" y="518" type="curve"/>
      <point x="176" y="506"/>
      <point x="151" y="522"/>
    </contour>
    <component base="e"/>
    <contour>
      <point x="214" y="350" type="move" name="_top"/>
    </contour>
    <contour>
      <point x="300" y="0" type="move" name="bottom"/>
    </contour>
    <contour>
      <point x="540" y="10" type="move" name="ogonek"/>
    </contour>
    <contour>
      <point x="300" y="400" type="move" name="top"/>
    </contour>
  </outline>
</glyph>
<glyph name="i_macr" format="1">
  <advance width="249"/>
  <unicode hex="012B"/>
  <outline>
    <contour>
      <point x="86" y="513" type="curve"/>
      <point x="68" y="520" type="line"/>
      <point x="64" y="551"/>
      <point x="62" y="578"/>
      <point x="68" y="613" type="curve"/>
      <point x="111" y="608"/>
      <point x="131" y="600"/>
      <point x="166" y="600" type="curve"/>
      <point x="195" y="600"/>
      <point x="207" y="611"/>
      <point x="226" y="653" type="curve"/>
      <point x="241" y="651"/>
      <point x="256" y="650"/>
      <point x="271" y="650" type="curve"/>
      <point x="263" y="635" type="line"/>
      <point x="250" y="635"/>
      <point x="247" y="639"/>
      <point x="228" y="594" type="curve"/>
      <point x="210" y="552"/>
      <point x="199" y="539"/>
      <point x="160" y="539" type="curve"/>
      <point x="131" y="539"/>
      <point x="116" y="544"/>
      <point x="96" y="546" type="curve"/>
      <point x="87" y="540"/>
      <point x="84" y="529"/>
    </contour>
    <component base="idotless"/>
    <contour>
      <point x="142.561" y="396" type="move" name="_top"/>
    </contour>
    <contour>
      <point x="300" y="0" type="move" name="bottom"/>
    </contour>
    <contour>
      <point x="142.561" y="669" type="move" name="top"/>
    </contour>
  </outline>
</glyph>
<glyph name="o_macr" format="1">
  <advance width="450"/>
  <unicode hex="014D"/>
  <outline>
    <contour>
      <point x="96" y="506" type="curve"/>
      <point x="83" y="519" type="line"/>
      <point x="165" y="615" type="line"/>
      <point x="273" y="604"/>
      <point x="301" y="631"/>
      <point x="364" y="695" type="curve"/>
      <point x="384" y="678" type="line"/>
      <point x="353" y="661"/>
      <point x="317" y="587"/>
      <point x="296" y="542" type="curve"/>
      <point x="195" y="548"/>
      <point x="175" y="560"/>
    </contour>
    <component base="o"/>
    <contour>
      <point x="232" y="400" type="move" name="_top"/>
    </contour>
    <contour>
      <point x="300" y="0" type="move" name="bottom"/>
    </contour>
    <contour>
      <point x="300" y="200" type="move" name="center"/>
    </contour>
    <contour>
      <point x="540" y="10" type="move" name="ogonek"/>
    </contour>
    <contour>
      <point x="300" y="400" type="move" name="top"/>
    </contour>
    <contour>
      <point x="580" y="400" type="move" name="topright"/>
    </contour>
  </outline>
</glyph>
<glyph name="u_macr" format="1">
  <advance width="520"/>
  <unicode hex="016B"/>
  <outline>
    <contour>
      <point x="120" y="486" type="curve"/>
      <point x="104" y="502" type="line"/>
      <point x="203" y="618" type="line"/>
      <point x="334" y="605"/>
      <point x="368" y="638"/>
      <point x="444" y="715" type="curve"/>
      <point x="468" y="694" type="line"/>
      <point x="431" y="674"/>
      <point x="387" y="584"/>
      <point x="362" y="530" type="curve"/>
      <point x="239" y="537"/>
      <point x="215" y="552"/>
    </contour>
    <component base="u"/>
    <contour>
      <point x="280" y="400" type="move" name="_top"/>
    </contour>
    <contour>
      <point x="300" y="0" type="move" name="bottom"/>
    </contour>
    <contour>
      <point x="540" y="10" type="move" name="ogonek"/>
    </contour>
    <contour>
      <point x="300" y="400" type="move" name="top"/>
    </contour>
    <contour>
      <point x="580" y="400" type="move" name="topright"/>
    </contour>
  </outline>
</glyph>
<glyph name="longs" format="1">
  <advance width="322"/>
  <unicode hex="017F"/>
  <outline>
    <contour>
      <point x="46" y="328" type="line"/>
      <point x="46" y="347" type="line"/>
      <point x="104" y="391" type="line"/>
      <point x="175" y="346" type="line"/>
    </contour>
    <contour>
      <point x="180" y="488" type="curve"/>
      <point x="180" y="385"/>
      <point x="185" y="91"/>
      <point x="191" y="63" type="curve"/>
      <point x="196" y="40"/>
      <point x="204" y="40"/>
      <point x="285" y="18" type="curve"/>
      <point x="285" y="-7" type="line"/>
      <point x="184" y="5"/>
      <point x="99" y="1"/>
      <point x="20" y="-8" type="curve"/>
      <point x="20" y="17" type="line"/>
      <point x="88" y="33"/>
      <point x="101" y="43"/>
      <point x="104" y="68" type="curve"/>
      <point x="111" y="128"/>
      <point x="101" y="451"/>
      <point x="100" y="517" type="curve"/>
      <point x="99" y="632"/>
      <point x="161" y="710"/>
      <point x="279" y="710" type="curve"/>
      <point x="319" y="710"/>
      <point x="368" y="702"/>
      <point x="402" y="694" type="curve"/>
      <point x="390" y="668"/>
      <point x="375" y="636"/>
      <point x="364" y="612" type="curve"/>
      <point x="324" y="633"/>
      <point x="267" y="656"/>
      <point x="216" y="666" type="curve"/>
      <point x="184" y="626"/>
      <point x="180" y="575"/>
    </contour>
    <contour>
      <point x="248" y="0" type="move" name="bottom"/>
    </contour>
    <contour>
      <point x="248" y="400" type="move" name="top"/>
    </contour>
  </outline>
</glyph>
<glyph name="a_hook" format="1">
  <advance width="402"/>
  <unicode hex="1EA3"/>
  <outline>
    <contour>
      <point x="197" y="688" type="curve"/>
      <point x="116" y="634" type="line"/>
      <point x="116" y="618" type="line"/>
      <point x="180" y="617"/>
      <point x="220" y="597"/>
      <point x="220" y="552" type="curve"/>
      <point x="220" y="523"/>
      <point x="200" y="483"/>
      <point x="160" y="462" type="curve"/>
      <point x="175" y="446" type="line"/>
      <point x="202" y="455"/>
      <point x="285" y="511"/>
      <point x="285" y="592" type="curve"/>
      <point x="285" y="645"/>
      <point x="258" y="672"/>
    </contour>
    <component base="a"/>
    <contour>
      <point x="173" y="380" type="move" name="_top"/>
    </contour>
    <contour>
      <point x="300" y="0" type="move" name="bottom"/>
    </contour>
    <contour>
      <point x="540" y="10" type="move" name="ogonek"/>
    </contour>
    <contour>
      <point x="300" y="400" type="move" name="top"/>
    </contour>
  </outline>
</glyph>
<glyph name="p_bardes" format="1">
  <advance width="530"/>
  <unicode hex="A750"/>
  <outline>
    <contour>
      <point x="21" y="-124" type="line"/>
      <point x="22" y="-160" type="line"/>
      <point x="136" y="-162"/>
      <point x="255" y="-167"/>
      <point x="369" y="-175" type="curve"/>
      <point x="372" y="-161" type="line"/>
      <point x="177" y="-121" type="line"/>
    </contour>
    <component base="p"/>
    <contour>
      <point x="300" y="0" type="move" name="bottom"/>
    </contour>
    <contour>
      <point x="300" y="400" type="move" name="top"/>
    </contour>
  </outline>
</glyph>
<glyph name="p_flour" format="1">
  <advance width="697"/>
  <unicode hex="A753"/>
  <outline>
    <contour>
      <point x="321" y="-179" type="curve"/>
      <point x="317" y="-114"/>
      <point x="318" y="264"/>
      <point x="318" y="316" type="curve"/>
      <point x="305" y="354"/>
      <point x="296" y="362"/>
      <point x="271" y="409" type="curve"/>
      <point x="251" y="408" type="line"/>
      <point x="182" y="335" type="line"/>
      <point x="182" y="316" type="line"/>
      <point x="237" y="295"/>
      <point x="240" y="266"/>
      <point x="240" y="220" type="curve"/>
      <point x="240" y="80"/>
      <point x="241" y="-29"/>
      <point x="236" y="-179" type="curve"/>
      <point x="235" y="-207"/>
      <point x="236" y="-220"/>
      <point x="192" y="-225" type="curve"/>
      <point x="192" y="-250" type="line"/>
      <point x="249" y="-244"/>
      <point x="298" y="-244"/>
      <point x="378" y="-250" type="curve"/>
      <point x="378" y="-225" type="line"/>
      <point x="319" y="-216"/>
      <point x="322" y="-201"/>
    </contour>
    <contour>
      <point x="313" y="319" type="curve"/>
      <point x="313" y="272" type="line"/>
      <point x="345" y="305"/>
      <point x="391" y="336"/>
      <point x="449" y="336" type="curve"/>
      <point x="535" y="336"/>
      <point x="593" y="280"/>
      <point x="593" y="199" type="curve"/>
      <point x="593" y="118"/>
      <point x="537" y="33"/>
      <point x="430" y="33" type="curve"/>
      <point x="346" y="33"/>
      <point x="342" y="38"/>
      <point x="317" y="38" type="curve"/>
      <point x="307" y="4" type="line"/>
      <point x="367" y="0"/>
      <point x="428" y="-10"/>
      <point x="468" y="-19" type="curve"/>
      <point x="583" y="18"/>
      <point x="672" y="88"/>
      <point x="672" y="209" type="curve"/>
      <point x="672" y="330"/>
      <point x="575" y="411"/>
      <point x="458" y="411" type="curve"/>
      <point x="420" y="411"/>
      <point x="355" y="348"/>
    </contour>
    <contour>
      <point x="295" y="1" type="curve"/>
      <point x="280" y="41" type="line"/>
      <point x="111" y="28"/>
      <point x="-8" y="-47"/>
      <point x="-5" y="-162" type="curve"/>
      <point x="-4" y="-196"/>
      <point x="6" y="-231"/>
      <point x="31" y="-259" type="curve"/>
      <point x="59" y="-259"/>
      <point x="102" y="-240"/>
      <point x="147" y="-224" type="curve"/>
      <point x="148" y="-202" type="line"/>
      <point x="113" y="-196"/>
      <point x="66" y="-168"/>
      <point x="66" y="-129" type="curve"/>
      <point x="66" y="-34"/>
      <point x="187" y="13"/>
    </contour>
    <contour>
      <point x="635" y="0" type="move" name="bottom"/>
    </contour>
    <contour>
      <point x="635" y="400" type="move" name="top"/>
    </contour>
  </outline>
</glyph>
<glyph name="q_bardes" format="1">
  <advance width="550"/>
  <unicode hex="A757"/>
  <outline>
    <contour>
      <point x="375" y="366" type="curve"/>
      <point x="375" y="334"/>
      <point x="375" y="-114"/>
      <point x="372" y="-179" type="curve"/>
      <point x="371" y="-201"/>
      <point x="374" y="-216"/>
      <point x="315" y="-225" type="curve"/>
      <point x="315" y="-250" type="line"/>
      <point x="395" y="-244"/>
      <point x="444" y="-244"/>
      <point x="511" y="-250" type="curve"/>
      <point x="511" y="-225" type="line"/>
      <point x="457" y="-220"/>
      <point x="458" y="-207"/>
      <point x="457" y="-179" type="curve"/>
      <point x="452" y="-29"/>
      <point x="453" y="85"/>
      <point x="453" y="220" type="curve"/>
      <point x="453" y="317"/>
      <point x="452" y="347"/>
      <point x="479" y="411" type="curve"/>
      <point x="460" y="420" type="line"/>
      <point x="440" y="400"/>
      <point x="395" y="374"/>
    </contour>
    <contour>
      <point x="375" y="261" type="curve"/>
      <point x="433" y="369" type="line"/>
      <point x="386" y="380"/>
      <point x="302" y="401"/>
      <point x="239" y="411" type="curve"/>
      <point x="164" y="362"/>
      <point x="25" y="300"/>
      <point x="25" y="173" type="curve"/>
      <point x="25" y="62"/>
      <point x="101" y="14"/>
      <point x="209" y="-15" type="curve"/>
      <point x="249" y="-6"/>
      <point x="330" y="48"/>
      <point x="390" y="62" type="curve"/>
      <point x="375" y="141" type="line"/>
      <point x="356" y="88"/>
      <point x="315" y="51"/>
      <point x="239" y="51" type="curve"/>
      <point x="160" y="51"/>
      <point x="104" y="118"/>
      <point x="104" y="199" type="curve"/>
      <point x="104" y="280"/>
      <point x="152" y="338"/>
      <point x="240" y="338" type="curve"/>
      <point x="298" y="338"/>
      <point x="354" y="311"/>
    </contour>
    <contour>
      <point x="105" y="-127" type="line"/>
      <point x="98" y="-165" type="line"/>
      <point x="528" y="-114" type="line"/>
      <point x="530" y="-92" type="line"/>
    </contour>
    <contour>
      <point x="300" y="0" type="move" name="bottom"/>
    </contour>
    <contour>
      <point x="300" y="400" type="move" name="top"/>
    </contour>
  </outline>
</glyph>
<glyph name="l_strok" format="1">
  <advance width="402"/>
  <unicode hex="A769"/>
  <outline>
    <contour>
      <point x="143" y="588" type="curve"/>
      <point x="153" y="551" type="line"/>
      <point x="181" y="575"/>
      <point x="210" y="598"/>
      <point x="241" y="598" type="curve"/>
      <point x="281" y="598"/>
      <point x="303" y="573"/>
      <point x="303" y="542" type="curve"/>
      <point x="303" y="476"/>
      <point x="210" y="397"/>
      <point x="129" y="374" type="curve"/>
      <point x="147" y="349" type="line"/>
      <point x="280" y="422"/>
      <point x="387" y="483"/>
      <point x="387" y="588" type="curve"/>
      <point x="387" y="629"/>
      <point x="349" y="670"/>
      <point x="314" y="688" type="curve"/>
      <point x="271" y="658"/>
      <point x="208" y="617"/>
    </contour>
    <component base="l"/>
    <contour>
      <point x="300" y="0" type="move" name="bottom"/>
    </contour>
    <contour>
      <point x="300" y="350" type="move" name="center"/>
    </contour>
    <contour>
      <point x="300" y="700" type="move" name="top"/>
    </contour>
    <contour>
      <point x="580" y="700" type="move" name="topright"/>
    </contour>
  </outline>
</glyph>
<glyph name="con" format="1">
  <advance width="366"/>
  <unicode hex="A76F"/>
  <outline>
    <contour>
      <point x="19" y="299" type="curve"/>
      <point x="-70" y="365" type="line"/>
      <point x="-68" y="370" type="line"/>
      <point x="-19" y="390"/>
      <point x="78" y="411"/>
      <point x="112" y="411" type="curve"/>
      <point x="199" y="411"/>
      <point x="341" y="325"/>
      <point x="341" y="182" type="curve"/>
      <point x="341" y="88"/>
      <point x="270" y="19"/>
      <point x="148" y="-11" type="curve"/>
      <point x="87" y="-3"/>
      <point x="17" y="13"/>
      <point x="-32" y="23" type="curve"/>
      <point x="-32" y="56" type="line"/>
      <point x="-14" y="51"/>
      <point x="21" y="43"/>
      <point x="53" y="43" type="curve"/>
      <point x="144" y="43"/>
      <point x="256" y="110"/>
      <point x="256" y="198" type="curve"/>
      <point x="256" y="271"/>
      <point x="231" y="327"/>
      <point x="175" y="356" type="curve"/>
      <point x="135" y="356"/>
      <point x="62" y="316"/>
    </contour>
    <contour>
      <point x="183" y="0" type="move" name="bottom"/>
    </contour>
    <contour>
      <point x="183" y="400" type="move" name="top"/>
    </contour>
  </outline>
</glyph>
<glyph name="usmod" format="1">
  <advance width="365"/>
  <unicode hex="A770"/>
  <outline>
    <contour>
      <point x="10" y="530" type="curve"/>
      <point x="10" y="628"/>
      <point x="85" y="712"/>
      <point x="183" y="712" type="curve"/>
      <point x="294" y="712"/>
      <point x="350" y="646"/>
      <point x="350" y="537" type="curve"/>
      <point x="350" y="415"/>
      <point x="223" y="221"/>
      <point x="105" y="2" type="curve"/>
      <point x="32" y="0" type="line"/>
      <point x="32" y="24" type="line"/>
      <point x="200" y="214"/>
      <point x="267" y="400"/>
      <point x="267" y="505" type="curve"/>
      <point x="267" y="591"/>
      <point x="234" y="669"/>
      <point x="157" y="669" type="curve"/>
      <point x="102" y="669"/>
      <point x="80" y="617"/>
      <point x="80" y="557" type="curve"/>
      <point x="80" y="452"/>
      <point x="165" y="400"/>
      <point x="260" y="428" type="curve"/>
      <point x="261" y="395" type="line"/>
      <point x="114" y="365"/>
      <point x="10" y="412"/>
    </contour>
  </outline>
</glyph>
<glyph name="t_acute" format="1">
  <advance width="330"/>
  <unicode hex="E6E2"/>
  <outline>
    <contour>
      <point x="138" y="734" type="curve"/>
      <point x="252" y="723" type="line"/>
      <point x="238" y="700" type="line"/>
      <point x="198" y="702" type="line"/>
      <point x="161" y="661"/>
      <point x="264" y="642"/>
      <point x="264" y="605" type="curve"/>
      <point x="264" y="584"/>
      <point x="233" y="558"/>
      <point x="213" y="535" type="curve"/>
      <point x="175" y="542"/>
      <point x="78" y="541"/>
      <point x="53" y="532" type="curve"/>
      <point x="45" y="542" type="line"/>
      <point x="57" y="553"/>
      <point x="92" y="594"/>
      <point x="131" y="594" type="curve"/>
      <point x="161" y="594"/>
      <point x="178" y="592"/>
      <point x="202" y="587" type="curve"/>
      <point x="225" y="619"/>
      <point x="103" y="664"/>
      <point x="103" y="693" type="curve"/>
      <point x="103" y="706"/>
      <point x="117" y="718"/>
    </contour>
    <component base="t"/>
    <contour>
      <point x="300" y="0" type="move" name="bottom"/>
    </contour>
    <contour>
      <point x="300" y="200" type="move" name="center"/>
    </contour>
    <contour>
      <point x="300" y="400" type="move" name="top"/>
    </contour>
    <contour>
      <point x="580" y="400" type="move" name="topright"/>
    </contour>
  </outline>
</glyph>
<glyph name="longs_longs" format="1">
  <advance width="623"/>
  <unicode hex="EBA6"/>
  <outline>
    <contour>
      <point x="20" y="351" type="line"/>
      <point x="118" y="388" type="line"/>
      <point x="189" y="346" type="line"/>
      <point x="20" y="328" type="line"/>
    </contour>
    <contour>
      <point x="194" y="518" type="curve"/>
      <point x="194" y="425"/>
      <point x="199" y="91"/>
      <point x="205" y="63" type="curve"/>
      <point x="210" y="40"/>
      <point x="218" y="40"/>
      <point x="269" y="18" type="curve"/>
      <point x="269" y="-7" type="line"/>
      <point x="198" y="5"/>
      <point x="113" y="1"/>
      <point x="54" y="-8" type="curve"/>
      <point x="54" y="17" type="line"/>
      <point x="102" y="33"/>
      <point x="115" y="43"/>
      <point x="118" y="68" type="curve"/>
      <point x="125" y="128"/>
      <point x="114" y="431"/>
      <point x="114" y="487" type="curve"/>
      <point x="113" y="603"/>
      <point x="175" y="682"/>
      <point x="292" y="688" type="curve"/>
      <point x="353" y="691"/>
      <point x="426" y="671"/>
      <point x="460" y="656" type="curve"/>
      <point x="448" y="630"/>
      <point x="441" y="608"/>
      <point x="430" y="577" type="curve"/>
      <point x="412" y="568" type="line"/>
      <point x="381" y="624"/>
      <point x="326" y="641"/>
      <point x="285" y="641" type="curve"/>
      <point x="235" y="641"/>
      <point x="194" y="606"/>
    </contour>
    <contour>
      <point x="481" y="548" type="curve"/>
      <point x="481" y="445"/>
      <point x="486" y="91"/>
      <point x="492" y="63" type="curve"/>
      <point x="497" y="40"/>
      <point x="505" y="40"/>
      <point x="566" y="18" type="curve"/>
      <point x="566" y="-7" type="line"/>
      <point x="485" y="5"/>
      <point x="400" y="1"/>
      <point x="341" y="-8" type="curve"/>
      <point x="341" y="17" type="line"/>
      <point x="389" y="33"/>
      <point x="402" y="43"/>
      <point x="405" y="68" type="curve"/>
      <point x="412" y="128"/>
      <point x="402" y="451"/>
      <point x="401" y="517" type="curve"/>
      <point x="399" y="633"/>
      <point x="462" y="711"/>
      <point x="580" y="711" type="curve"/>
      <point x="620" y="711"/>
      <point x="669" y="707"/>
      <point x="703" y="693" type="curve"/>
      <point x="691" y="667"/>
      <point x="676" y="637"/>
      <point x="665" y="613" type="curve"/>
      <point x="655" y="615" type="line"/>
      <point x="655" y="615"/>
      <point x="613" y="667"/>
      <point x="564" y="667" type="curve"/>
      <point x="522" y="667"/>
      <point x="481" y="636"/>
    </contour>
    <contour>
      <point x="262" y="0" type="move" name="bottom_1"/>
    </contour>
    <contour>
      <point x="787" y="0" type="move" name="bottom_2"/>
    </contour>
    <contour>
      <point x="524" y="0" type="move" name="caret_1"/>
    </contour>
    <contour>
      <point x="262" y="400" type="move" name="top_1"/>
    </contour>
    <contour>
      <point x="787" y="400" type="move" name="top_2"/>
    </contour>
  </outline>
</glyph>
<glyph name="c_t" format="1">
  <advance width="729"/>
  <unicode hex="EEC5"/>
  <outline>
    <contour>
      <point x="25" y="172" type="curve"/>
      <point x="25" y="315"/>
      <point x="160" y="411"/>
      <point x="227" y="411" type="curve"/>
      <point x="254" y="411"/>
      <point x="272" y="411"/>
      <point x="289" y="408" type="curve"/>
      <point x="295" y="506"/>
      <point x="343" y="634"/>
      <point x="452" y="634" type="curve"/>
      <point x="521" y="634"/>
      <point x="581" y="598"/>
      <point x="581" y="523" type="curve"/>
      <point x="581" y="501"/>
      <point x="575" y="408"/>
      <point x="574" y="379" type="curve"/>
      <point x="668" y="382"/>
      <point x="678" y="382"/>
      <point x="716" y="391" type="curve"/>
      <point x="723" y="386" type="line"/>
      <point x="719" y="306" type="line"/>
      <point x="666" y="313"/>
      <point x="621" y="316"/>
      <point x="569" y="315" type="curve"/>
      <point x="568" y="125" type="line" smooth="yes"/>
      <point x="568" y="80"/>
      <point x="584" y="48"/>
      <point x="629" y="46" type="curve"/>
      <point x="649" y="45"/>
      <point x="682" y="47"/>
      <point x="718" y="65" type="curve"/>
      <point x="729" y="48" type="line"/>
      <point x="729" y="48"/>
      <point x="633" y="-10"/>
      <point x="608" y="-10" type="curve"/>
      <point x="502" y="-10"/>
      <point x="491" y="53"/>
      <point x="492" y="87" type="curve"/>
      <point x="496" y="278" type="line" smooth="yes"/>
      <point x="497" y="323"/>
      <point x="492" y="323"/>
      <point x="443" y="332" type="curve"/>
      <point x="443" y="348" type="line"/>
      <point x="483" y="376"/>
      <point x="506" y="399"/>
      <point x="508" y="461" type="curve"/>
      <point x="510" y="532"/>
      <point x="479" y="555"/>
      <point x="428" y="555" type="curve"/>
      <point x="367" y="555"/>
      <point x="331" y="501"/>
      <point x="321" y="405" type="curve"/>
      <point x="312" y="319" type="line"/>
      <point x="269" y="336"/>
      <point x="194" y="346"/>
      <point x="154" y="346" type="curve"/>
      <point x="127" y="317"/>
      <point x="103" y="271"/>
      <point x="103" y="198" type="curve"/>
      <point x="103" y="110"/>
      <point x="163" y="54"/>
      <point x="224" y="54" type="curve"/>
      <point x="272" y="54"/>
      <point x="324" y="87"/>
      <point x="370" y="119" type="curve"/>
      <point x="386" y="96" type="line"/>
      <point x="330" y="54"/>
      <point x="255" y="7"/>
      <point x="194" y="-11" type="curve"/>
      <point x="113" y="0"/>
      <point x="25" y="58"/>
    </contour>
    <contour>
      <point x="156" y="0" type="move" name="bottom"/>
    </contour>
    <contour>
      <point x="147" y="0" type="move" name="bottom_1"/>
    </contour>
    <contour>
      <point x="495" y="0" type="move" name="bottom_2"/>
    </contour>
    <contour>
      <point x="321" y="0" type="move" name="caret_1"/>
    </contour>
    <contour>
      <point x="593" y="200" type="move" name="center"/>
    </contour>
    <contour>
      <point x="156" y="400" type="move" name="top"/>
    </contour>
    <contour>
      <point x="147" y="400" type="move" name="top_1"/>
    </contour>
    <contour>
      <point x="495" y="400" type="move" name="top_2"/>
    </contour>
    <contour>
      <point x="738" y="400" type="move" name="topright"/>
    </contour>
  </outline>
</glyph>
<glyph name="f_f" format="1">
  <advance width="624"/>
  <unicode hex="FB00"/>
  <outline>
    <contour>
      <point x="21" y="328" type="line"/>
      <point x="21" y="351" type="line"/>
      <point x="119" y="388" type="line"/>
      <point x="220" y="346" type="line"/>
    </contour>
    <contour>
      <point x="195" y="518" type="curve"/>
      <point x="195" y="425"/>
      <point x="200" y="91"/>
      <point x="206" y="63" type="curve"/>
      <point x="211" y="40"/>
      <point x="219" y="40"/>
      <point x="270" y="18" type="curve"/>
      <point x="270" y="-7" type="line"/>
      <point x="199" y="5"/>
      <point x="114" y="1"/>
      <point x="55" y="-8" type="curve"/>
      <point x="55" y="17" type="line"/>
      <point x="103" y="33"/>
      <point x="116" y="43"/>
      <point x="119" y="68" type="curve"/>
      <point x="126" y="128"/>
      <point x="115" y="431"/>
      <point x="115" y="487" type="curve"/>
      <point x="114" y="603"/>
      <point x="176" y="682"/>
      <point x="293" y="688" type="curve"/>
      <point x="334" y="690"/>
      <point x="427" y="671"/>
      <point x="461" y="656" type="curve"/>
      <point x="449" y="630"/>
      <point x="442" y="608"/>
      <point x="431" y="577" type="curve"/>
      <point x="413" y="568" type="line"/>
      <point x="382" y="624"/>
      <point x="327" y="641"/>
      <point x="286" y="641" type="curve"/>
      <point x="236" y="641"/>
      <point x="195" y="606"/>
    </contour>
    <contour>
      <point x="463" y="386" type="line"/>
      <point x="423" y="342" type="line"/>
      <point x="189" y="342" type="line"/>
      <point x="189" y="398" type="line"/>
      <point x="463" y="398" type="line"/>
    </contour>
    <contour>
      <point x="482" y="548" type="curve"/>
      <point x="482" y="445"/>
      <point x="487" y="91"/>
      <point x="493" y="63" type="curve"/>
      <point x="498" y="40"/>
      <point x="506" y="40"/>
      <point x="567" y="18" type="curve"/>
      <point x="567" y="-7" type="line"/>
      <point x="486" y="5"/>
      <point x="401" y="1"/>
      <point x="342" y="-8" type="curve"/>
      <point x="342" y="17" type="line"/>
      <point x="390" y="33"/>
      <point x="403" y="43"/>
      <point x="406" y="68" type="curve"/>
      <point x="413" y="128"/>
      <point x="403" y="451"/>
      <point x="402" y="517" type="curve"/>
      <point x="400" y="633"/>
      <point x="463" y="711"/>
      <point x="581" y="711" type="curve"/>
      <point x="621" y="711"/>
      <point x="670" y="708"/>
      <point x="704" y="693" type="curve"/>
      <point x="692" y="667"/>
      <point x="677" y="637"/>
      <point x="666" y="613" type="curve"/>
      <point x="656" y="615" type="line"/>
      <point x="656" y="615"/>
      <point x="614" y="667"/>
      <point x="565" y="667" type="curve"/>
      <point x="523" y="667"/>
      <point x="482" y="636"/>
    </contour>
    <contour>
      <point x="642" y="386" type="line"/>
      <point x="602" y="342" type="line"/>
      <point x="476" y="342" type="line"/>
      <point x="476" y="398" type="line"/>
      <point x="642" y="398" type="line"/>
    </contour>
    <contour>
      <point x="389.5" y="0" type="move" name="caret_1"/>
    </contour>
  </outline>
</glyph>
<glyph name="longs_t" format="1">
  <advance width="611"/>
  <unicode hex="FB05"/>
  <outline>
    <contour>
      <point x="98" y="338" type="curve"/>
      <point x="20" y="328" type="line"/>
      <point x="20" y="351" type="line"/>
      <point x="97" y="388" type="line"/>
      <point x="94" y="517" type="line" smooth="yes"/>
      <point x="93" y="633"/>
      <point x="145" y="711"/>
      <point x="273" y="711" type="curve"/>
      <point x="353" y="711"/>
      <point x="423" y="676"/>
      <point x="423" y="571" type="curve"/>
      <point x="423" y="559"/>
      <point x="423" y="432"/>
      <point x="423" y="400" type="curve"/>
      <point x="516" y="402"/>
      <point x="566" y="403"/>
      <point x="604" y="411" type="curve"/>
      <point x="611" y="406" type="line"/>
      <point x="582" y="326" type="line"/>
      <point x="529" y="333"/>
      <point x="475" y="336"/>
      <point x="422" y="335" type="curve"/>
      <point x="421" y="125" type="line" smooth="yes"/>
      <point x="421" y="80"/>
      <point x="437" y="58"/>
      <point x="482" y="56" type="curve"/>
      <point x="502" y="55"/>
      <point x="552" y="57"/>
      <point x="588" y="75" type="curve"/>
      <point x="599" y="58" type="line"/>
      <point x="599" y="58"/>
      <point x="524" y="-10"/>
      <point x="461" y="-10" type="curve"/>
      <point x="355" y="-10"/>
      <point x="344" y="53"/>
      <point x="345" y="87" type="curve"/>
      <point x="349" y="288" type="line" smooth="yes"/>
      <point x="350" y="333"/>
      <point x="345" y="343"/>
      <point x="296" y="362" type="curve"/>
      <point x="296" y="378" type="line"/>
      <point x="354" y="396" type="line"/>
      <point x="357" y="442"/>
      <point x="355" y="517"/>
      <point x="352" y="554" type="curve"/>
      <point x="347" y="619"/>
      <point x="329" y="669"/>
      <point x="261" y="669" type="curve"/>
      <point x="209" y="669"/>
      <point x="174" y="636"/>
      <point x="174" y="548" type="curve"/>
      <point x="174" y="445"/>
      <point x="179" y="91"/>
      <point x="185" y="63" type="curve"/>
      <point x="190" y="40"/>
      <point x="198" y="40"/>
      <point x="249" y="18" type="curve"/>
      <point x="249" y="-7" type="line"/>
      <point x="178" y="5"/>
      <point x="93" y="1"/>
      <point x="34" y="-8" type="curve"/>
      <point x="34" y="17" type="line"/>
      <point x="82" y="33"/>
      <point x="95" y="43"/>
      <point x="98" y="68" type="curve"/>
      <point x="102" y="103"/>
      <point x="100" y="228"/>
    </contour>
    <contour>
      <point x="242" y="0" type="move" name="bottom"/>
    </contour>
    <contour>
      <point x="365" y="0" type="move" name="caret_1"/>
    </contour>
    <contour>
      <point x="456" y="200" type="move" name="center"/>
    </contour>
    <contour>
      <point x="242" y="400" type="move" name="top"/>
    </contour>
    <contour>
      <point x="601" y="400" type="move" name="topright"/>
    </contour>
  </outline>
</glyph>
<glyph name="Q_P" format="1">
  <advance width="1092"/>
  <outline>
    <contour>
      <point x="559" y="63" type="curve"/>
      <point x="434" y="9" type="line"/>
      <point x="533" y="-117"/>
      <point x="694" y="-182"/>
      <point x="852" y="-181" type="curve"/>
      <point x="946" y="-181"/>
      <point x="1084" y="-133"/>
      <point x="1142" y="-108" type="curve"/>
      <point x="1135" y="-89" type="line"/>
      <point x="1055" y="-112"/>
      <point x="971" y="-127"/>
      <point x="887" y="-127" type="curve"/>
      <point x="741" y="-127"/>
      <point x="624" y="-72"/>
    </contour>
    <contour>
      <point x="681" y="421" type="curve"/>
      <point x="691" y="380" type="line"/>
      <point x="758" y="438"/>
      <point x="813" y="514"/>
      <point x="904" y="514" type="curve"/>
      <point x="977" y="514"/>
      <point x="1013" y="464"/>
      <point x="1013" y="410" type="curve"/>
      <point x="1013" y="254"/>
      <point x="828" y="52"/>
      <point x="658" y="-81" type="curve"/>
      <point x="703" y="-97" type="line"/>
      <point x="930" y="100"/>
      <point x="1097" y="269"/>
      <point x="1097" y="424" type="curve"/>
      <point x="1097" y="530"/>
      <point x="1031" y="591"/>
      <point x="958" y="591" type="curve"/>
      <point x="870" y="591"/>
      <point x="741" y="484"/>
    </contour>
    <component base="O"/>
    <contour>
      <point x="320" y="0" type="move" name="bottom_1"/>
    </contour>
    <contour>
      <point x="957" y="0" type="move" name="bottom_2"/>
    </contour>
    <contour>
      <point x="638" y="0" type="move" name="caret_1"/>
    </contour>
    <contour>
      <point x="320" y="400" type="move" name="top_1"/>
    </contour>
    <contour>
      <point x="957" y="400" type="move" name="top_2"/>
    </contour>
  </outline>
</glyph>
<glyph name="Q_u" format="1">
  <advance width="1334"/>
  <outline>
    <contour>
      <point x="559" y="63" type="curve"/>
      <point x="434" y="9" type="line"/>
      <point x="533" y="-117"/>
      <point x="734" y="-181"/>
      <point x="902" y="-181" type="curve"/>
      <point x="1026" y="-181"/>
      <point x="1173" y="-144"/>
      <point x="1251" y="-98" type="curve"/>
      <point x="1244" y="-79" type="line"/>
      <point x="1144" y="-116"/>
      <point x="1051" y="-127"/>
      <point x="947" y="-127" type="curve"/>
      <point x="801" y="-127"/>
      <point x="624" y="-72"/>
    </contour>
    <component base="O"/>
    <component base="u" xOffset="799"/>
    <contour>
      <point x="320" y="0" type="move" name="bottom_1"/>
    </contour>
    <contour>
      <point x="957" y="0" type="move" name="bottom_2"/>
    </contour>
    <contour>
      <point x="638" y="0" type="move" name="caret_1"/>
    </contour>
    <contour>
      <point x="320" y="400" type="move" name="top_1"/>
    </contour>
    <contour>
      <point x="957" y="400" type="move" name="top_2"/>
    </contour>
  </outline>
</glyph>
<glyph name="b_hook" format="1">
  <advance width="463"/>
  <outline>
    <contour>
      <point x="123" y="625" type="curve"/>
      <point x="133" y="588" type="line"/>
      <point x="161" y="612"/>
      <point x="190" y="635"/>
      <point x="221" y="635" type="curve"/>
      <point x="261" y="635"/>
      <point x="283" y="610"/>
      <point x="283" y="579" type="curve"/>
      <point x="283" y="513"/>
      <point x="190" y="434"/>
      <point x="109" y="411" type="curve"/>
      <point x="127" y="386" type="line"/>
      <point x="260" y="459"/>
      <point x="367" y="520"/>
      <point x="367" y="625" type="curve"/>
      <point x="367" y="666"/>
      <point x="329" y="707"/>
      <point x="294" y="725" type="curve"/>
      <point x="251" y="695"/>
      <point x="188" y="654"/>
    </contour>
    <component base="b"/>
    <contour>
      <point x="300" y="0" type="move" name="bottom"/>
    </contour>
    <contour>
      <point x="300" y="700" type="move" name="top"/>
    </contour>
  </outline>
</glyph>
<glyph name="c_hook" format="1">
  <advance width="366"/>
  <outline>
    <contour>
      <point x="116" y="472" type="curve"/>
      <point x="137" y="452" type="line"/>
      <point x="346" y="561"/>
      <point x="252" y="754"/>
      <point x="67" y="623" type="curve"/>
      <point x="67" y="596" type="line"/>
      <point x="159" y="647"/>
      <point x="209" y="526"/>
    </contour>
    <component base="c"/>
  </outline>
</glyph>
<glyph name="c_ra" format="1">
  <advance width="411"/>
  <outline>
    <contour>
      <point x="47" y="492" type="curve"/>
      <point x="25" y="507" type="line"/>
      <point x="37" y="517"/>
      <point x="106" y="576"/>
      <point x="129" y="596" type="curve"/>
      <point x="155" y="581"/>
      <point x="186" y="564"/>
      <point x="211" y="550" type="curve"/>
      <point x="271" y="599" type="line"/>
      <point x="320" y="561"/>
      <point x="344" y="545"/>
      <point x="379" y="578" type="curve"/>
      <point x="401" y="565" type="line"/>
      <point x="374" y="535"/>
      <point x="347" y="505"/>
      <point x="313" y="474" type="curve"/>
      <point x="274" y="499"/>
      <point x="242" y="519"/>
      <point x="210" y="525" type="curve"/>
      <point x="178" y="510"/>
      <point x="149" y="486"/>
      <point x="135" y="476" type="curve"/>
      <point x="84" y="511"/>
      <point x="84" y="512"/>
    </contour>
    <component base="c" xOffset="19"/>
  </outline>
</glyph>
<glyph name="d_strok" format="1">
  <advance width="517"/>
  <outline>
    <contour>
      <point x="461" y="550" type="curve"/>
      <point x="392" y="543"/>
      <point x="215" y="528"/>
      <point x="108" y="529" type="curve"/>
      <point x="100" y="501" type="line"/>
      <point x="199" y="504"/>
      <point x="317" y="509"/>
      <point x="446" y="510" type="curve"/>
      <point x="451" y="527"/>
      <point x="456" y="537"/>
    </contour>
    <component base="d"/>
    <contour>
      <point x="300" y="0" type="move" name="bottom"/>
    </contour>
    <contour>
      <point x="300" y="200" type="move" name="center"/>
    </contour>
    <contour>
      <point x="300" y="700" type="move" name="top"/>
    </contour>
    <contour>
      <point x="580" y="400" type="move" name="topright"/>
    </contour>
  </outline>
</glyph>
<glyph name="e_hook" format="1">
  <advance width="368"/>
  <outline>
    <contour>
      <point x="85" y="634" type="line"/>
      <point x="85" y="618" type="line"/>
      <point x="149" y="617"/>
      <point x="189" y="597"/>
      <point x="189" y="552" type="curve"/>
      <point x="189" y="523"/>
      <point x="169" y="483"/>
      <point x="129" y="462" type="curve"/>
      <point x="144" y="446" type="line"/>
      <point x="171" y="455"/>
      <point x="254" y="511"/>
      <point x="254" y="592" type="curve"/>
      <point x="254" y="645"/>
      <point x="227" y="672"/>
      <point x="166" y="688" type="curve"/>
    </contour>
    <component base="e"/>
    <contour>
      <point x="142" y="380" type="move" name="_top"/>
    </contour>
    <contour>
      <point x="300" y="0" type="move" name="bottom"/>
    </contour>
    <contour>
      <point x="540" y="10" type="move" name="ogonek"/>
    </contour>
    <contour>
      <point x="300" y="400" type="move" name="top"/>
    </contour>
  </outline>
</glyph>
<glyph name="g_ra" format="1">
  <advance width="510"/>
  <outline>
    <contour>
      <point x="84" y="519" type="curve"/>
      <point x="61" y="534" type="line"/>
      <point x="74" y="544"/>
      <point x="145" y="602"/>
      <point x="169" y="622" type="curve"/>
      <point x="196" y="607"/>
      <point x="228" y="590"/>
      <point x="254" y="577" type="curve"/>
      <point x="316" y="625" type="line"/>
      <point x="366" y="588"/>
      <point x="391" y="572"/>
      <point x="427" y="604" type="curve"/>
      <point x="450" y="591" type="line"/>
      <point x="422" y="562"/>
      <point x="394" y="532"/>
      <point x="359" y="502" type="curve"/>
      <point x="319" y="526"/>
      <point x="286" y="546"/>
      <point x="253" y="552" type="curve"/>
      <point x="220" y="537"/>
      <point x="190" y="513"/>
      <point x="175" y="504" type="curve"/>
      <point x="122" y="538"/>
      <point x="122" y="539"/>
    </contour>
    <component base="g"/>
    <contour>
      <point x="300" y="-250" type="move" name="bottom"/>
    </contour>
    <contour>
      <point x="300" y="400" type="move" name="top"/>
    </contour>
  </outline>
</glyph>
<glyph name="h_strok" format="1">
  <advance width="502"/>
  <outline>
    <contour>
      <point x="145" y="599" type="curve"/>
      <point x="155" y="565" type="line"/>
      <point x="183" y="587"/>
      <point x="212" y="608"/>
      <point x="243" y="608" type="curve"/>
      <point x="283" y="608"/>
      <point x="305" y="585"/>
      <point x="305" y="557" type="curve"/>
      <point x="305" y="497"/>
      <point x="212" y="424"/>
      <point x="131" y="403" type="curve"/>
      <point x="149" y="381" type="line"/>
      <point x="282" y="447"/>
      <point x="389" y="503"/>
      <point x="389" y="599" type="curve"/>
      <point x="389" y="636"/>
      <point x="351" y="674"/>
      <point x="316" y="690" type="curve"/>
      <point x="273" y="663"/>
      <point x="210" y="625"/>
    </contour>
    <component base="h"/>
    <contour>
      <point x="300" y="0" type="move" name="bottom"/>
    </contour>
    <contour>
      <point x="300" y="350" type="move" name="center"/>
    </contour>
    <contour>
      <point x="300" y="700" type="move" name="top"/>
    </contour>
  </outline>
</glyph>
<glyph name="longs_strok" format="1">
  <advance width="416"/>
  <outline>
    <contour>
      <point x="175" y="350" type="curve"/>
      <point x="161" y="365" type="line"/>
      <point x="291" y="416" type="line"/>
      <point x="329" y="392"/>
      <point x="374" y="369"/>
      <point x="374" y="325" type="curve"/>
      <point x="374" y="240"/>
      <point x="145" y="128"/>
      <point x="21" y="60" type="curve"/>
      <point x="20" y="99" type="line"/>
      <point x="127" y="143"/>
      <point x="305" y="227"/>
      <point x="305" y="300" type="curve"/>
      <point x="305" y="324"/>
      <point x="286" y="359"/>
      <point x="251" y="359" type="curve"/>
      <point x="219" y="359"/>
      <point x="206" y="353"/>
    </contour>
    <component base="longs"/>
  </outline>
</glyph>
<glyph name="longs_z" format="1">
  <advance width="427"/>
  <outline>
    <contour>
      <point x="290" y="483" type="curve"/>
      <point x="345" y="483"/>
      <point x="386" y="458"/>
      <point x="383" y="398" type="curve"/>
      <point x="380" y="344"/>
      <point x="303" y="314"/>
      <point x="277" y="298" type="curve"/>
      <point x="319" y="302"/>
      <point x="374" y="284"/>
      <point x="374" y="230" type="curve"/>
      <point x="374" y="140"/>
      <point x="234" y="87"/>
      <point x="181" y="70" type="curve"/>
      <point x="171" y="96" type="line"/>
      <point x="225" y="109"/>
      <point x="309" y="152"/>
      <point x="309" y="215" type="curve"/>
      <point x="309" y="250"/>
      <point x="258" y="272"/>
      <point x="175" y="241" type="curve"/>
      <point x="168" y="259" type="line"/>
      <point x="237" y="301"/>
      <point x="312" y="334"/>
      <point x="312" y="383" type="curve"/>
      <point x="312" y="430"/>
      <point x="255" y="459"/>
      <point x="157" y="388" type="curve"/>
      <point x="146" y="406" type="line"/>
      <point x="192" y="429"/>
      <point x="235" y="483"/>
    </contour>
    <component base="longs"/>
    <contour>
      <point x="200" y="0" type="move" name="bottom_1"/>
    </contour>
    <contour>
      <point x="599" y="0" type="move" name="bottom_2"/>
    </contour>
    <contour>
      <point x="399.5" y="0" type="move" name="caret_1"/>
    </contour>
    <contour>
      <point x="200" y="400" type="move" name="top_1"/>
    </contour>
    <contour>
      <point x="599" y="400" type="move" name="top_2"/>
    </contour>
  </outline>
</glyph>
<glyph name="n_hook" format="1">
  <advance width="504"/>
  <outline>
    <contour>
      <point x="475" y="547" type="curve"/>
      <point x="499" y="579" type="line"/>
      <point x="403" y="819"/>
      <point x="171" y="695"/>
      <point x="316" y="494" type="curve"/>
      <point x="349" y="494" type="line"/>
      <point x="287" y="605"/>
      <point x="410" y="659"/>
    </contour>
    <component base="n"/>
  </outline>
</glyph>
<glyph name="n_macr" format="1">
  <advance width="519"/>
  <outline>
    <contour>
      <point x="144" y="479" type="curve"/>
      <point x="128" y="495" type="line"/>
      <point x="227" y="611" type="line"/>
      <point x="358" y="598"/>
      <point x="392" y="631"/>
      <point x="468" y="708" type="curve"/>
      <point x="492" y="687" type="line"/>
      <point x="455" y="667"/>
      <point x="411" y="577"/>
      <point x="386" y="523" type="curve"/>
      <point x="264" y="530"/>
      <point x="239" y="545"/>
    </contour>
    <component base="n"/>
    <contour>
      <point x="242" y="400" type="move" name="_top"/>
    </contour>
    <contour>
      <point x="242" y="673" type="move" name="top"/>
    </contour>
  </outline>
</glyph>
<glyph name="o_e" format="1">
  <advance width="706"/>
  <outline>
    <contour>
      <point x="157" y="343" type="curve"/>
      <point x="116" y="308"/>
      <point x="100" y="255"/>
      <point x="100" y="208" type="curve"/>
      <point x="100" y="104"/>
      <point x="180" y="48"/>
      <point x="246" y="48" type="curve"/>
      <point x="310" y="48"/>
      <point x="348" y="113"/>
      <point x="348" y="187" type="curve"/>
      <point x="348" y="290"/>
      <point x="265" y="359"/>
    </contour>
    <contour>
      <point x="179" y="-10" type="curve"/>
      <point x="85" y="20"/>
      <point x="25" y="86"/>
      <point x="25" y="187" type="curve"/>
      <point x="25" y="250"/>
      <point x="41" y="288"/>
      <point x="80" y="335" type="curve"/>
      <point x="118" y="357"/>
      <point x="157" y="383"/>
      <point x="206" y="413" type="curve"/>
      <point x="332" y="401"/>
      <point x="425" y="345"/>
      <point x="425" y="203" type="curve"/>
      <point x="425" y="92"/>
      <point x="344" y="23"/>
      <point x="260" y="5" type="curve"/>
      <point x="222" y="-3"/>
      <point x="202" y="-4"/>
    </contour>
    <contour>
      <point x="442" y="216" type="curve"/>
      <point x="442" y="121"/>
      <point x="495" y="50"/>
      <point x="567" y="50" type="curve"/>
      <point x="606" y="50"/>
      <point x="644" y="63"/>
      <point x="664" y="72" type="curve"/>
      <point x="675" y="46" type="line"/>
      <point x="632" y="29"/>
      <point x="589" y="8"/>
      <point x="544" y="-10" type="curve"/>
      <point x="429" y="-10"/>
      <point x="363" y="83"/>
      <point x="363" y="197" type="curve"/>
      <point x="363" y="247"/>
      <point x="372" y="292"/>
      <point x="389" y="325" type="curve"/>
      <point x="423" y="356"/>
      <point x="499" y="399"/>
      <point x="563" y="411" type="curve"/>
      <point x="644" y="386"/>
      <point x="674" y="336"/>
      <point x="701" y="263" type="curve"/>
      <point x="699" y="260" type="line"/>
      <point x="623" y="236"/>
      <point x="497" y="199"/>
      <point x="439" y="174" type="curve"/>
      <point x="433" y="209" type="line"/>
      <point x="489" y="221"/>
      <point x="554" y="241"/>
      <point x="607" y="267" type="curve"/>
      <point x="590" y="306"/>
      <point x="544" y="360"/>
      <point x="517" y="360" type="curve"/>
      <point x="479" y="360"/>
      <point x="442" y="294"/>
    </contour>
    <contour>
      <point x="231" y="0" type="move" name="bottom"/>
    </contour>
    <contour>
      <point x="231" y="200" type="move" name="center"/>
    </contour>
    <contour>
      <point x="416" y="10" type="move" name="ogonek"/>
    </contour>
    <contour>
      <point x="231" y="400" type="move" name="top"/>
    </contour>
    <contour>
      <point x="442" y="400" type="move" name="topright"/>
    </contour>
  </outline>
</glyph>
<glyph name="p_hook" format="1">
  <advance width="530"/>
  <outline>
    <contour>
      <point x="106" y="504" type="curve"/>
      <point x="129" y="484" type="line"/>
      <point x="338" y="593"/>
      <point x="244" y="786"/>
      <point x="59" y="655" type="curve"/>
      <point x="60" y="627" type="line"/>
      <point x="155" y="698"/>
      <point x="228" y="561"/>
    </contour>
    <component base="p"/>
  </outline>
</glyph>
<glyph name="p_ra" format="1">
  <advance width="530"/>
  <outline>
    <contour>
      <point x="102" y="547" type="curve"/>
      <point x="79" y="562" type="line"/>
      <point x="92" y="572"/>
      <point x="163" y="630"/>
      <point x="187" y="650" type="curve"/>
      <point x="214" y="635"/>
      <point x="246" y="618"/>
      <point x="272" y="605" type="curve"/>
      <point x="334" y="653" type="line"/>
      <point x="384" y="616"/>
      <point x="409" y="600"/>
      <point x="445" y="632" type="curve"/>
      <point x="468" y="619" type="line"/>
      <point x="440" y="590"/>
      <point x="412" y="560"/>
      <point x="377" y="530" type="curve"/>
      <point x="337" y="554"/>
      <point x="304" y="574"/>
      <point x="271" y="580" type="curve"/>
      <point x="238" y="565"/>
      <point x="208" y="541"/>
      <point x="193" y="532" type="curve"/>
      <point x="140" y="566"/>
      <point x="140" y="567"/>
    </contour>
    <component base="p"/>
    <contour>
      <point x="300" y="0" type="move" name="bottom"/>
    </contour>
    <contour>
      <point x="300" y="400" type="move" name="top"/>
    </contour>
  </outline>
</glyph>
<glyph name="q_etfin" format="1">
  <advance width="699"/>
  <outline>
    <contour>
      <point x="573" y="350" type="curve"/>
      <point x="513" y="350"/>
      <point x="457" y="291"/>
      <point x="407" y="266" type="curve"/>
      <point x="419" y="247" type="line"/>
      <point x="520" y="311"/>
      <point x="580" y="277"/>
      <point x="580" y="222" type="curve"/>
      <point x="580" y="148"/>
      <point x="514" y="117"/>
      <point x="429" y="79" type="curve"/>
      <point x="439" y="58" type="line"/>
      <point x="539" y="91"/>
      <point x="584" y="66"/>
      <point x="584" y="18" type="curve"/>
      <point x="584" y="-62"/>
      <point x="493" y="-97"/>
      <point x="434" y="-122" type="curve"/>
      <point x="445" y="-150" type="line"/>
      <point x="513" y="-121"/>
      <point x="664" y="-58"/>
      <point x="664" y="26" type="curve"/>
      <point x="664" y="107"/>
      <point x="578" y="124"/>
      <point x="507" y="118" type="curve"/>
      <point x="520" y="109" type="line"/>
      <point x="549" y="110"/>
      <point x="671" y="171"/>
      <point x="674" y="258" type="curve"/>
      <point x="676" y="323"/>
      <point x="633" y="350"/>
    </contour>
    <component base="q"/>
    <contour>
      <point x="658" y="0" type="move" name="bottom"/>
    </contour>
    <contour>
      <point x="199" y="0" type="move" name="bottom_1"/>
    </contour>
    <contour>
      <point x="596" y="0" type="move" name="bottom_2"/>
    </contour>
    <contour>
      <point x="397.5" y="0" type="move" name="caret_1"/>
    </contour>
    <contour>
      <point x="658" y="400" type="move" name="top"/>
    </contour>
    <contour>
      <point x="199" y="400" type="move" name="top_1"/>
    </contour>
    <contour>
      <point x="596" y="400" type="move" name="top_2"/>
    </contour>
  </outline>
</glyph>
<glyph name="q_etfin_ra" format="1">
  <advance width="699"/>
  <outline>
    <contour>
      <point x="170" y="543" type="curve"/>
      <point x="147" y="558" type="line"/>
      <point x="160" y="568"/>
      <point x="231" y="626"/>
      <point x="255" y="646" type="curve"/>
      <point x="282" y="631"/>
      <point x="314" y="614"/>
      <point x="340" y="601" type="curve"/>
      <point x="402" y="649" type="line"/>
      <point x="452" y="612"/>
      <point x="477" y="596"/>
      <point x="513" y="628" type="curve"/>
      <point x="536" y="615" type="line"/>
      <point x="508" y="586"/>
      <point x="480" y="556"/>
      <point x="445" y="526" type="curve"/>
      <point x="405" y="550"/>
      <point x="372" y="570"/>
      <point x="339" y="576" type="curve"/>
      <point x="306" y="561"/>
      <point x="276" y="537"/>
      <point x="261" y="528" type="curve"/>
      <point x="208" y="562"/>
      <point x="208" y="563"/>
    </contour>
    <component base="q_etfin"/>
    <contour>
      <point x="100" y="0" type="move" name="bottom_1"/>
    </contour>
    <contour>
      <point x="300" y="0" type="move" name="bottom_2"/>
    </contour>
    <contour>
      <point x="500" y="0" type="move" name="bottom_3"/>
    </contour>
    <contour>
      <point x="200" y="0" type="move" name="caret_1"/>
    </contour>
    <contour>
      <point x="400" y="0" type="move" name="caret_2"/>
    </contour>
    <contour>
      <point x="100" y="400" type="move" name="top_1"/>
    </contour>
    <contour>
      <point x="300" y="400" type="move" name="top_2"/>
    </contour>
    <contour>
      <point x="500" y="400" type="move" name="top_3"/>
    </contour>
  </outline>
</glyph>
<glyph name="q_etfin_ring" format="1">
  <advance width="699"/>
  <outline>
    <contour>
      <point x="269" y="634" type="curve"/>
      <point x="251" y="618"/>
      <point x="243" y="593"/>
      <point x="243" y="571" type="curve"/>
      <point x="243" y="523"/>
      <point x="281" y="497"/>
      <point x="312" y="497" type="curve"/>
      <point x="340" y="497"/>
      <point x="358" y="528"/>
      <point x="358" y="563" type="curve"/>
      <point x="358" y="608"/>
      <point x="319" y="641"/>
    </contour>
    <contour>
      <point x="278" y="465" type="curve"/>
      <point x="233" y="479"/>
      <point x="195" y="511"/>
      <point x="195" y="562" type="curve"/>
      <point x="195" y="592"/>
      <point x="211" y="610"/>
      <point x="231" y="633" type="curve"/>
      <point x="250" y="645"/>
      <point x="268" y="657"/>
      <point x="293" y="672" type="curve"/>
      <point x="354" y="666"/>
      <point x="406" y="638"/>
      <point x="406" y="570" type="curve"/>
      <point x="406" y="514"/>
      <point x="360" y="479"/>
      <point x="318" y="472" type="curve"/>
      <point x="300" y="469"/>
      <point x="291" y="469"/>
    </contour>
    <component base="q_etfin"/>
    <contour>
      <point x="150" y="0" type="move" name="bottom_1"/>
    </contour>
    <contour>
      <point x="450" y="0" type="move" name="bottom_2"/>
    </contour>
    <contour>
      <point x="750" y="0" type="move" name="bottom_3"/>
    </contour>
    <contour>
      <point x="200" y="0" type="move" name="caret_1"/>
    </contour>
    <contour>
      <point x="400" y="0" type="move" name="caret_2"/>
    </contour>
    <contour>
      <point x="150" y="400" type="move" name="top_1"/>
    </contour>
    <contour>
      <point x="450" y="400" type="move" name="top_2"/>
    </contour>
    <contour>
      <point x="750" y="400" type="move" name="top_3"/>
    </contour>
  </outline>
</glyph>
<glyph name="q_ring" format="1">
  <advance width="521"/>
  <outline>
    <contour>
      <point x="320" y="634" type="curve"/>
      <point x="302" y="618"/>
      <point x="294" y="593"/>
      <point x="294" y="571" type="curve"/>
      <point x="294" y="523"/>
      <point x="332" y="497"/>
      <point x="363" y="497" type="curve"/>
      <point x="391" y="497"/>
      <point x="409" y="528"/>
      <point x="409" y="563" type="curve"/>
      <point x="409" y="608"/>
      <point x="370" y="641"/>
    </contour>
    <contour>
      <point x="329" y="465" type="curve"/>
      <point x="284" y="479"/>
      <point x="246" y="511"/>
      <point x="246" y="562" type="curve"/>
      <point x="246" y="592"/>
      <point x="262" y="610"/>
      <point x="282" y="633" type="curve"/>
      <point x="301" y="645"/>
      <point x="319" y="657"/>
      <point x="344" y="672" type="curve"/>
      <point x="405" y="666"/>
      <point x="457" y="638"/>
      <point x="457" y="570" type="curve"/>
      <point x="457" y="514"/>
      <point x="411" y="479"/>
      <point x="369" y="472" type="curve"/>
      <point x="351" y="469"/>
      <point x="342" y="469"/>
    </contour>
    <component base="q"/>
    <contour>
      <point x="300" y="0" type="move" name="bottom"/>
    </contour>
    <contour>
      <point x="300" y="400" type="move" name="top"/>
    </contour>
  </outline>
</glyph>
<glyph name="q_strok" format="1">
  <advance width="738"/>
  <outline>
    <contour>
      <point x="436" y="304" type="curve"/>
      <point x="436" y="260" type="line"/>
      <point x="474" y="298"/>
      <point x="533" y="316"/>
      <point x="573" y="316" type="curve"/>
      <point x="613" y="316"/>
      <point x="675" y="307"/>
      <point x="675" y="244" type="curve"/>
      <point x="675" y="86"/>
      <point x="309" y="-108"/>
      <point x="116" y="-197" type="curve"/>
      <point x="115" y="-212" type="line"/>
      <point x="164" y="-234" type="line"/>
      <point x="337" y="-117"/>
      <point x="733" y="87"/>
      <point x="733" y="253" type="curve"/>
      <point x="733" y="327"/>
      <point x="660" y="393"/>
      <point x="585" y="393" type="curve"/>
      <point x="542" y="373"/>
      <point x="481" y="341"/>
    </contour>
    <component base="q"/>
    <contour>
      <point x="264" y="0" type="move" name="bottom_1"/>
    </contour>
    <contour>
      <point x="792" y="0" type="move" name="bottom_2"/>
    </contour>
    <contour>
      <point x="528" y="0" type="move" name="caret_1"/>
    </contour>
    <contour>
      <point x="264" y="400" type="move" name="top_1"/>
    </contour>
    <contour>
      <point x="792" y="400" type="move" name="top_2"/>
    </contour>
  </outline>
</glyph>
<glyph name="r_exp" format="1">
  <advance width="271"/>
  <outline>
    <contour>
      <point x="146" y="568" type="curve"/>
      <point x="144" y="609" type="line"/>
      <point x="156" y="611"/>
      <point x="195" y="674"/>
      <point x="226" y="674" type="curve"/>
      <point x="240" y="674"/>
      <point x="246" y="674"/>
      <point x="259" y="673" type="curve"/>
      <point x="249" y="596" type="line"/>
      <point x="236" y="599"/>
      <point x="216" y="600"/>
      <point x="208" y="600" type="curve"/>
      <point x="178" y="600"/>
      <point x="155" y="591"/>
    </contour>
    <contour>
      <point x="147" y="609" type="curve"/>
      <point x="147" y="568"/>
      <point x="144" y="473"/>
      <point x="150" y="456" type="curve"/>
      <point x="155" y="442"/>
      <point x="158" y="442"/>
      <point x="190" y="428" type="curve"/>
      <point x="190" y="408" type="line"/>
      <point x="146" y="415"/>
      <point x="82" y="412"/>
      <point x="45" y="407" type="curve"/>
      <point x="45" y="427" type="line"/>
      <point x="75" y="438"/>
      <point x="76" y="443"/>
      <point x="78" y="459" type="curve"/>
      <point x="83" y="496"/>
      <point x="82" y="537"/>
      <point x="82" y="567" type="curve"/>
      <point x="82" y="615"/>
      <point x="64" y="628"/>
      <point x="35" y="633" type="curve"/>
      <point x="35" y="643" type="line"/>
      <point x="57" y="651"/>
      <point x="87" y="668"/>
      <point x="134" y="684" type="curve"/>
      <point x="143" y="680" type="line"/>
      <point x="143" y="680"/>
      <point x="146" y="658"/>
    </contour>
    <contour>
      <point x="158" y="363" type="move" name="bottom"/>
    </contour>
    <contour>
      <point x="158" y="615" type="move" name="top"/>
    </contour>
  </outline>
</glyph>
<glyph name="r_hook" format="1">
  <advance width="373"/>
  <outline>
    <contour>
      <point x="133" y="673" type="curve"/>
      <point x="99" y="593" type="line"/>
      <point x="201" y="581"/>
      <point x="187" y="517"/>
      <point x="135" y="495" type="curve"/>
      <point x="148" y="478" type="line"/>
      <point x="208" y="495"/>
      <point x="322" y="637"/>
    </contour>
    <component base="r"/>
  </outline>
</glyph>
<glyph name="r_macr" format="1">
  <advance width="383"/>
  <outline>
    <contour>
      <point x="71" y="506" type="curve"/>
      <point x="58" y="519" type="line"/>
      <point x="140" y="615" type="line"/>
      <point x="248" y="604"/>
      <point x="276" y="631"/>
      <point x="339" y="695" type="curve"/>
      <point x="359" y="678" type="line"/>
      <point x="328" y="661"/>
      <point x="292" y="587"/>
      <point x="271" y="542" type="curve"/>
      <point x="170" y="548"/>
      <point x="150" y="560"/>
    </contour>
    <component base="r"/>
    <contour>
      <point x="207" y="400" type="move" name="_top"/>
    </contour>
    <contour>
      <point x="300" y="0" type="move" name="bottom"/>
    </contour>
    <contour>
      <point x="300" y="400" type="move" name="top"/>
    </contour>
  </outline>
</glyph>
<glyph name="r_ra" format="1">
  <advance width="424"/>
  <outline>
    <contour>
      <point x="53" y="542" type="curve"/>
      <point x="30" y="557" type="line"/>
      <point x="43" y="567"/>
      <point x="114" y="625"/>
      <point x="138" y="645" type="curve"/>
      <point x="165" y="630"/>
      <point x="197" y="613"/>
      <point x="223" y="600" type="curve"/>
      <point x="285" y="648" type="line"/>
      <point x="335" y="611"/>
      <point x="360" y="595"/>
      <point x="396" y="627" type="curve"/>
      <point x="419" y="614" type="line"/>
      <point x="391" y="585"/>
      <point x="363" y="555"/>
      <point x="328" y="525" type="curve"/>
      <point x="288" y="549"/>
      <point x="255" y="569"/>
      <point x="222" y="575" type="curve"/>
      <point x="189" y="560"/>
      <point x="159" y="536"/>
      <point x="144" y="527" type="curve"/>
      <point x="91" y="561"/>
      <point x="91" y="562"/>
    </contour>
    <component base="r"/>
  </outline>
</glyph>
<glyph name="rum" format="1">
  <advance width="471"/>
  <outline>
    <contour>
      <point x="506" y="56" type="line"/>
      <point x="460" y="-4" type="line"/>
      <point x="36" y="-4" type="line"/>
      <point x="36" y="22" type="line"/>
      <point x="107" y="116"/>
      <point x="162" y="194"/>
      <point x="162" y="271" type="curve"/>
      <point x="162" y="338"/>
      <point x="99" y="361"/>
      <point x="35" y="329" type="curve"/>
      <point x="21" y="348" type="line"/>
      <point x="21" y="348"/>
      <point x="68" y="403"/>
      <point x="129" y="403" type="curve"/>
      <point x="198" y="403"/>
      <point x="240" y="367"/>
      <point x="235" y="306" type="curve"/>
      <point x="230" y="247"/>
      <point x="158" y="155"/>
      <point x="114" y="75" type="curve"/>
      <point x="176" y="75"/>
      <point x="284" y="76"/>
      <point x="506" y="76" type="curve"/>
    </contour>
    <contour>
      <point x="304" y="-282" type="curve"/>
      <point x="255" y="-267" type="line"/>
      <point x="255" y="-250" type="line"/>
      <point x="301" y="-226"/>
      <point x="318" y="-193"/>
      <point x="318" y="-97" type="curve"/>
      <point x="318" y="-96"/>
      <point x="318" y="56"/>
      <point x="322" y="134" type="curve"/>
      <point x="327" y="227"/>
      <point x="299" y="406"/>
      <point x="422" y="404" type="curve"/>
      <point x="484" y="403"/>
      <point x="506" y="360"/>
      <point x="535" y="301" type="curve"/>
      <point x="518" y="288" type="line"/>
      <point x="484" y="311"/>
      <point x="455" y="316"/>
      <point x="436" y="316" type="curve"/>
      <point x="355" y="316"/>
      <point x="362" y="156"/>
      <point x="362" y="75" type="curve"/>
      <point x="363" y="-104" type="line" smooth="yes"/>
      <point x="364" y="-206"/>
      <point x="328" y="-247"/>
    </contour>
  </outline>
</glyph>
<glyph name="s_ra" format="1">
  <advance width="429"/>
  <outline>
    <contour>
      <point x="47" y="507" type="curve"/>
      <point x="25" y="522" type="line"/>
      <point x="37" y="532"/>
      <point x="107" y="590"/>
      <point x="130" y="610" type="curve"/>
      <point x="156" y="595"/>
      <point x="187" y="579"/>
      <point x="213" y="565" type="curve"/>
      <point x="274" y="613" type="line"/>
      <point x="322" y="576"/>
      <point x="347" y="560"/>
      <point x="382" y="592" type="curve"/>
      <point x="404" y="579" type="line"/>
      <point x="377" y="550"/>
      <point x="350" y="520"/>
      <point x="316" y="490" type="curve"/>
      <point x="276" y="514"/>
      <point x="244" y="534"/>
      <point x="212" y="540" type="curve"/>
      <point x="180" y="525"/>
      <point x="150" y="501"/>
      <point x="136" y="492" type="curve"/>
      <point x="84" y="526"/>
      <point x="84" y="527"/>
    </contour>
    <component base="s" xOffset="26"/>
  </outline>
</glyph>
<glyph name="t_exp" format="1">
  <advance width="287"/>
  <outline>
    <contour>
      <point x="146" y="627" type="curve"/>
      <point x="146" y="680" type="line"/>
      <point x="218" y="682"/>
      <point x="242" y="682"/>
      <point x="269" y="689" type="curve"/>
      <point x="274" y="685" type="line"/>
      <point x="254" y="620" type="line"/>
      <point x="213" y="627"/>
      <point x="188" y="628"/>
    </contour>
    <contour>
      <point x="154" y="673" type="curve"/>
      <point x="158" y="631" type="line"/>
      <point x="157" y="520" type="line" smooth="yes"/>
      <point x="157" y="489"/>
      <point x="161" y="460"/>
      <point x="192" y="460" type="curve"/>
      <point x="205" y="460"/>
      <point x="236" y="468"/>
      <point x="261" y="480" type="curve"/>
      <point x="269" y="463" type="line"/>
      <point x="269" y="463"/>
      <point x="193" y="400"/>
      <point x="173" y="400" type="curve"/>
      <point x="100" y="400"/>
      <point x="92" y="444"/>
      <point x="93" y="467" type="curve"/>
      <point x="96" y="593" type="line" smooth="yes"/>
      <point x="97" y="624"/>
      <point x="93" y="631"/>
      <point x="59" y="644" type="curve"/>
      <point x="59" y="655" type="line"/>
      <point x="92" y="685"/>
      <point x="113" y="704"/>
      <point x="146" y="754" type="curve"/>
      <point x="164" y="753" type="line"/>
      <point x="157" y="722"/>
      <point x="156" y="702"/>
    </contour>
    <contour>
      <point x="162" y="350" type="move" name="bottom"/>
    </contour>
    <contour>
      <point x="162" y="488" type="move" name="center"/>
    </contour>
    <contour>
      <point x="162" y="627" type="move" name="top"/>
    </contour>
    <contour>
      <point x="264" y="627" type="move" name="topright"/>
    </contour>
  </outline>
</glyph>
<glyph name="t_hook" format="1">
  <advance width="335"/>
  <outline>
    <contour>
      <point x="154" y="716" type="curve"/>
      <point x="113" y="649" type="line"/>
      <point x="214" y="627"/>
      <point x="184" y="577"/>
      <point x="130" y="560" type="curve"/>
      <point x="141" y="542" type="line"/>
      <point x="203" y="552"/>
      <point x="339" y="661"/>
    </contour>
    <component base="t"/>
    <contour>
      <point x="170" y="400" type="move" name="_top"/>
    </contour>
    <contour>
      <point x="170" y="716" type="move" name="top"/>
    </contour>
  </outline>
</glyph>
<glyph name="t_ra" format="1">
  <advance width="398"/>
  <outline>
    <contour>
      <point x="42" y="615" type="curve"/>
      <point x="20" y="630" type="line"/>
      <point x="32" y="640"/>
      <point x="101" y="696"/>
      <point x="125" y="715" type="curve"/>
      <point x="151" y="701"/>
      <point x="182" y="684"/>
      <point x="207" y="672" type="curve"/>
      <point x="268" y="718" type="line"/>
      <point x="316" y="682"/>
      <point x="341" y="667"/>
      <point x="375" y="698" type="curve"/>
      <point x="398" y="685" type="line"/>
      <point x="371" y="657"/>
      <point x="343" y="628"/>
      <point x="309" y="599" type="curve"/>
      <point x="270" y="622"/>
      <point x="238" y="642"/>
      <point x="206" y="647" type="curve"/>
      <point x="174" y="633"/>
      <point x="145" y="610"/>
      <point x="131" y="601" type="curve"/>
      <point x="79" y="634"/>
      <point x="79" y="635"/>
    </contour>
    <component base="t" xOffset="16"/>
  </outline>
</glyph>
